<?xml version="1.0" encoding="UTF-8"?>
<svg width="45px" height="40px" viewBox="0 0 45 40" version="1.1" xmlns="http://www.w3.org/2000/svg" xmlns:xlink="http://www.w3.org/1999/xlink">
    <title>0A295FE5-74A5-470B-87F3-5EFA67EF9E83</title>
    <g id="Home" stroke="none" stroke-width="1" fill="none" fill-rule="evenodd">
        <g id="Desktop-HD-Copy-62" transform="translate(-1075.000000, -134.000000)">
            <g id="Group-16-Copy-2" transform="translate(463.000000, 120.000000)">
                <g id="Group-34" transform="translate(612.000000, 14.000000)">
                    <g id="stethoscope-(1)" transform="translate(0.000000, 8.000000)" fill="#736F82">
                        <path d="M9.6,14.4 C8.780944,14.4 8,14.99632 8,15.81536 L8,22.4 C8,27.70192 12.298064,32 17.6,32 C22.41792,32 26.40688,28.45088 27.09504,23.82448 C29.90848,23.1512 32,20.61984 32,17.6 C32,14.06544 29.13456,11.2 25.6,11.2 C22.06544,11.2 19.2,14.06544 19.2,17.6 C19.2,20.52976 21.16864,22.99984 23.85536,23.75936 C23.23216,26.64096 20.66816,28.8 17.6,28.8 C14.06544,28.8 11.2,25.93456 11.2,22.4 L11.2,17.4672 C15.74032,16.7056 19.2,12.7568 19.2,8 L19.2,1.6 C19.2,0.716352 18.48368,0 17.6,0 L14.4,0 C13.51632,0 12.8,0.716352 12.8,1.6 C12.8,2.483648 13.51632,3.2 14.4,3.2 L16,3.2 L16,8 C16,11.534624 13.13456,14.4 9.6,14.4 Z M25.6,14.4 C27.36736,14.4 28.8,15.83264 28.8,17.6 C28.8,19.36736 27.36736,20.8 25.6,20.8 C23.83264,20.8 22.4,19.36736 22.4,17.6 C22.4,15.83264 23.83264,14.4 25.6,14.4 Z M1.6,0 C0.716352,0 0,0.716352 0,1.6 L0,8 C0,11.292512 1.65752,14.19792 4.183664,15.9272 C5.18768,16.61456 6.4,15.77744 6.4,14.56064 C6.4,13.93136 6.051904,13.36416 5.563728,12.96704 C4.121392,11.79352 3.2,10.004352 3.2,8 L3.2,3.2 L4.8,3.2 C5.683648,3.2 6.4,2.483648 6.4,1.6 C6.4,0.716352 5.683648,0 4.8,0 L1.6,0 Z" id="Combined-Shape"></path>
                    </g>
                    <g id="Group-16" transform="translate(20.746714, 0.000000)" fill-rule="nonzero">
                        <path d="M11.8461538,28.0428001 C11.8461538,28.0428001 23.6923077,23.0360817 23.6923077,13.0204878 C23.6923077,9.01468166 23.6923077,4.00580614 23.6923077,4.00580614 L11.8461538,0 L0,4.00580614 L0,13.0204878 C0,23.0360817 11.8461538,28.0428001 11.8461538,28.0428001 Z" id="Path" fill="#FFFFFF"></path>
                        <path d="M11.8461538,21.0321001 C11.8461538,21.0321001 17.7692308,18.5287409 17.7692308,13.5209439 C17.7692308,11.5180409 17.7692308,9.01360309 17.7692308,9.01360309 L11.8461538,7.01070002 L5.92307692,9.01360309 L5.92307692,13.5209439 C5.92307692,18.5287409 11.8461538,21.0321001 11.8461538,21.0321001 Z" id="Path" fill="#A8A6B4"></path>
                        <path d="M11.8461538,25.8171434 C11.6853268,25.8171434 11.5244997,25.7846034 11.3717952,25.7211505 C10.9754133,25.5535696 1.69292953,21.5348818 1.69292953,13.2664725 L1.69292953,6.4672433 C1.69292953,5.94334959 2.02595529,5.47965485 2.52143263,5.31207395 L11.45627,2.29073665 C11.70807,2.20450569 11.9826132,2.20450569 12.2344131,2.29073665 L21.1692505,5.31207395 C21.6647279,5.47965485 21.9977536,5.94497659 21.9977536,6.4672433 L21.9977536,13.2664725 C21.9977536,21.5348818 12.7136453,25.5551966 12.318888,25.7211505 C12.167808,25.7846034 12.0069809,25.8171434 11.8461538,25.8171434 L11.8461538,25.8171434 Z M4.12970337,7.3441958 L4.12970337,13.2664725 C4.12970337,18.9870012 10.0965502,22.3792943 11.8445293,23.2497388 C13.5908839,22.3744133 19.5626043,18.9658503 19.5626043,13.2664725 L19.5626043,7.3441958 L11.8461538,4.73448927 L4.12970337,7.3441958 Z" id="Shape" fill="#000000"></path>
                    </g>
                </g>
            </g>
        </g>
    </g>
</svg>