<svg width="39.799" height="39.953" viewBox="0 0 39.799 39.953" xmlns="http://www.w3.org/2000/svg">
    <g fill-rule="nonzero" fill="none">
        <path d="M35.333 30.576c0 1.794-1.462 3.262-3.249 3.262H4.467c-1.787 0-3.249-1.468-3.249-3.262 0-3.698 1.173-6.523 4.874-6.523H30.46c2.774 0 4.873 1.765 4.873 6.523z" fill="#F3F3F1"/>
        <path d="M29.647 22.422s8.935-3.785 8.935-11.356V4.25l-8.935-3.028-8.934 3.028v6.815c0 7.571 8.934 11.356 8.934 11.356z" fill="#FFF"/>
        <path d="M29.647 18.85s5.923-2.51 5.923-7.53V6.804l-5.923-2.007-5.923 2.007v4.518c0 5.02 5.923 7.528 5.923 7.528z" fill="#A8A6B4"/>
        <path d="M29.647 23.645c-.16 0-.321-.032-.474-.096-.396-.168-9.679-4.196-9.679-12.483V4.25c0-.525.333-.99.829-1.158L29.258.065a1.2 1.2 0 0 1 .778 0l8.935 3.028c.495.168.828.634.828 1.158v6.815c0 8.287-9.284 12.317-9.679 12.483a1.22 1.22 0 0 1-.473.096zM21.931 5.13v5.936c0 5.734 5.967 9.134 7.715 10.006 1.746-.877 7.718-4.294 7.718-10.006V5.13l-7.717-2.616-7.716 2.616z" fill="#000"/>
        <path d="M16.195 13.047v2.446h-5.507c-.803 0-1.553.504-1.865 1.256l-2.528 6.08 16.61.001v2.446H6.093a3.666 3.666 0 0 0-3.655 3.67v1.63c0 1.124.911 2.039 2.03 2.039h27.617c1.12 0 2.03-.915 2.03-2.039v-1.63a3.63 3.63 0 0 0-.958-2.465l1.789-1.661a6.068 6.068 0 0 1 1.608 4.124v1.63l-.002.084v5.626c0 2.023-1.639 3.669-3.655 3.669a3.666 3.666 0 0 1-3.655-3.67V35.06H7.31v1.224c0 2.023-1.639 3.669-3.655 3.669A3.666 3.666 0 0 1 0 36.283v-7.338c0-2.399 1.383-4.48 3.391-5.48l3.183-7.66a4.452 4.452 0 0 1 4.114-2.758h5.507zM2.435 34.57l.002 1.714c0 .675.546 1.223 1.218 1.223.673 0 1.219-.548 1.219-1.223l-.001-1.224h-.406a4.429 4.429 0 0 1-2.031-.49zm29.65.49h-.407v1.224c0 .675.546 1.223 1.218 1.223.673 0 1.219-.548 1.219-1.223V34.57c-.61.314-1.3.49-2.03.49zm-21.12-7.338v2.446H6.092v-2.446h4.873zm19.495 0v2.446h-4.874v-2.446h4.874z" fill="#736F82"/>
    </g>
</svg>
