<svg width="34" height="29" viewBox="0 0 34 29" xmlns="http://www.w3.org/2000/svg">
    <g fill="none" fill-rule="evenodd">
        <path d="M12.953 28.697c-.615-.462-6.008-4.617-6.008-8.131 0-2.055 1.66-3.726 3.7-3.726 1.06 0 2.047.454 2.736 1.215a3.687 3.687 0 0 1 2.736-1.215c2.04 0 3.7 1.671 3.7 3.726 0 3.514-5.393 7.668-6.008 8.131a.715.715 0 0 1-.856 0z" fill="#109BDE"/>
        <path d="M8.012 5.07c2.082 0 4.017.89 5.369 2.384a7.238 7.238 0 0 1 3.975-2.25V7.48a4.853 4.853 0 0 0-2.572 2.552c-.485 1.123-2.321 1.123-2.807 0A4.842 4.842 0 0 0 7.527 7.1c-2.68 0-4.856 2.194-4.856 4.89 0 4.654 7.042 11.268 10.71 14.215 2.488-2 6.53-5.692 8.872-9.309.631.493 1.247.907 1.79 1.24-3.118 5.05-8.945 9.533-9.822 10.193a1.404 1.404 0 0 1-1.68 0C11.335 27.424.755 19.273.755 12.378c0-4.03 3.256-7.309 7.257-7.309z" fill="#13243E" fill-rule="nonzero"/>
        <g fill-rule="nonzero">
            <path d="M26.002 14.042s4.323-1.837 4.323-5.511V5.224l-4.323-1.47-4.323 1.47V8.53c0 3.674 4.323 5.51 4.323 5.51z" fill="#76B456"/>
            <path d="M26.002 17.552a.898.898 0 0 1-.346-.07c-.29-.123-7.064-3.071-7.064-9.138V3.356c0-.385.243-.725.604-.848L25.717.291a.873.873 0 0 1 .568 0l6.521 2.217a.895.895 0 0 1 .605.848v4.988c0 6.067-6.776 9.016-7.064 9.138a.888.888 0 0 1-.345.07zM20.37 4v4.345c0 4.197 4.355 6.686 5.63 7.325 1.275-.642 5.634-3.143 5.634-7.325V4l-5.632-1.915L20.37 4z" fill="#13243E"/>
        </g>
    </g>
</svg>
