<svg width="45" height="41" viewBox="0 0 45 41" xmlns="http://www.w3.org/2000/svg">
    <g fill="none" fill-rule="evenodd">
        <path d="M25.6 22.559a3.2 3.2 0 1 1 0 6.4 3.2 3.2 0 0 1 0-6.4z" fill="#109BDE"/>
        <path d="M9.6 22.559c-.82 0-1.6.596-1.6 1.415v6.585a9.6 9.6 0 0 0 9.6 9.6c4.818 0 8.807-3.55 9.495-8.176a6.4 6.4 0 1 0-3.24-.065 6.4 6.4 0 0 1-12.655-1.36v-4.932c4.54-.762 8-4.71 8-9.467v-6.4a1.6 1.6 0 0 0-1.6-1.6h-3.2a1.6 1.6 0 1 0 0 3.2H16v4.8a6.4 6.4 0 0 1-6.4 6.4zm16 0a3.2 3.2 0 1 1 0 6.4 3.2 3.2 0 0 1 0-6.4z" fill="#1A1A1A"/>
        <path d="M1.6 8.159a1.6 1.6 0 0 0-1.6 1.6v6.4a9.59 9.59 0 0 0 4.184 7.927c1.004.687 2.216-.15 2.216-1.367 0-.629-.348-1.196-.836-1.593A6.388 6.388 0 0 1 3.2 16.159v-4.8h1.6a1.6 1.6 0 0 0 0-3.2H1.6z" fill="#109BDE" fill-rule="nonzero"/>
        <g fill-rule="nonzero">
            <path d="M32.593 28.202s11.846-5.007 11.846-15.023V4.165L32.593.159 20.747 4.165v9.014c0 10.016 11.846 15.023 11.846 15.023z" fill="#FFF"/>
            <path d="M32.593 21.19s5.923-2.503 5.923-7.51V9.172L32.593 7.17 26.67 9.172v4.508c0 5.007 5.923 7.51 5.923 7.51z" fill="#77B841"/>
            <path d="M32.593 25.976c-.161 0-.322-.033-.474-.096-.397-.168-9.68-4.186-9.68-12.455V6.626c0-.524.334-.988.83-1.155l8.934-3.022c.252-.086.526-.086.778 0l8.935 3.022c.495.167.828.633.828 1.155v6.8c0 8.268-9.284 12.288-9.678 12.454a1.222 1.222 0 0 1-.473.096zM24.876 7.503v5.922c0 5.72 5.967 9.113 7.715 9.983 1.747-.875 7.718-4.283 7.718-9.983V7.503l-7.716-2.61-7.717 2.61z" fill="#000"/>
        </g>
    </g>
</svg>
