<svg xmlns="http://www.w3.org/2000/svg" xmlns:xlink="http://www.w3.org/1999/xlink" width="50" height="50" viewBox="0 0 50 50"><defs><clipPath id="b"><rect width="50" height="50"/></clipPath></defs><g id="a" clip-path="url(#b)"><ellipse cx="17" cy="17.5" rx="17" ry="17.5" transform="translate(11 11)" fill="#fff"/><path d="M52.491,33.991A17.99,17.99,0,0,0,32.573,16.1a16.962,16.962,0,0,0-1.739.278q-.166.035-.332.073a17.97,17.97,0,0,0-8.864,4.963q-.337.345-.66.711h0a17.99,17.99,0,0,0,26.39,24.433q.338-.345.66-.711h0A17.96,17.96,0,0,0,52.491,33.991ZM46.566,45.664c-.095.1-.192.192-.289.287-.112.11-.223.221-.338.327s-.2.18-.3.273-.232.206-.351.306-.212.172-.318.257-.24.192-.363.284-.22.162-.332.24-.249.18-.375.263-.228.151-.343.224-.258.163-.388.24-.234.139-.353.206-.266.149-.4.221-.24.127-.36.188c-.137.069-.275.136-.413.2-.12.057-.245.114-.368.168l-.426.18c-.124.05-.248.1-.372.148-.146.056-.293.108-.441.159-.125.044-.249.088-.376.128-.15.049-.3.093-.453.137-.125.037-.251.074-.378.109l-.146.035a14.879,14.879,0,0,0,3.832-6.223A20.141,20.141,0,0,1,46.62,45.6C46.6,45.625,46.583,45.646,46.566,45.664ZM29.8,50.106c-.152-.044-.3-.089-.454-.137-.127-.041-.251-.085-.376-.128-.148-.051-.3-.1-.441-.159-.125-.047-.248-.1-.371-.148l-.429-.18q-.183-.081-.365-.167c-.14-.066-.279-.133-.42-.2-.12-.06-.24-.12-.36-.185-.136-.073-.27-.147-.4-.224s-.234-.135-.35-.2c-.132-.079-.261-.161-.391-.244-.114-.073-.228-.146-.34-.222-.128-.086-.254-.176-.38-.266-.11-.079-.219-.157-.327-.24-.124-.094-.246-.19-.367-.287s-.212-.168-.315-.255c-.12-.1-.236-.2-.352-.306s-.2-.18-.3-.272-.225-.218-.337-.327-.195-.189-.29-.287l-.052-.056a20.127,20.127,0,0,1,4.109-1.582,14.883,14.883,0,0,0,3.832,6.223c-.049-.013-.1-.023-.146-.036C30.054,50.182,29.928,50.142,29.8,50.106ZM21.574,23.284a20.835,20.835,0,0,0,4.551,1.811,31.118,31.118,0,0,0-1.211,8.3h-7.19A16.754,16.754,0,0,1,21.574,23.284Zm.862-.965c.095-.1.193-.192.29-.288s.222-.22.336-.326.2-.183.306-.275.231-.205.35-.3.212-.173.318-.258.24-.192.363-.284.22-.162.332-.24.249-.18.375-.263.228-.151.343-.225.257-.163.387-.24.235-.139.354-.206.266-.149.4-.221.24-.127.36-.188c.137-.069.275-.136.413-.2.12-.057.245-.114.368-.168l.426-.18c.124-.051.248-.1.373-.149.145-.055.292-.107.439-.158.125-.044.251-.088.378-.129.149-.048.3-.092.451-.136.127-.037.252-.074.379-.109l.146-.035a14.879,14.879,0,0,0-3.832,6.223,20.141,20.141,0,0,1-4.109-1.581C22.4,22.357,22.419,22.336,22.437,22.318ZM39.2,17.876c.152.044.3.089.454.137.127.041.251.085.376.128.148.051.3.1.441.159.125.047.248.1.371.148l.429.18q.184.081.365.167c.14.066.279.133.42.2.12.06.24.12.36.185.136.073.27.147.4.224s.234.135.35.2c.132.079.261.161.391.244.114.073.228.146.34.222.128.086.254.176.379.266s.22.158.329.24.245.189.366.287c.106.084.212.168.315.255.12.1.236.2.352.306s.2.18.3.272.225.218.337.327.195.189.29.287l.052.056a20.127,20.127,0,0,1-4.109,1.582,14.882,14.882,0,0,0-3.837-6.223c.049.013.1.023.146.036C38.949,17.8,39.074,17.84,39.2,17.876Zm4.889,15.515a31.118,31.118,0,0,0-1.211-8.3,20.853,20.853,0,0,0,4.551-1.811,16.757,16.757,0,0,1,3.85,10.107ZM33.9,24.979a30.442,30.442,0,0,1-6.231-.733c1.415-3.955,3.665-6.633,6.231-7Zm-6.607.411a31.59,31.59,0,0,0,6.607.788v7.213H26.114a29.993,29.993,0,0,1,1.181-8Zm6.607,9.2V41.8a31.58,31.58,0,0,0-6.607.788,30,30,0,0,1-1.181-8ZM33.9,43v7.731c-2.566-.365-4.815-3.043-6.231-7A30.474,30.474,0,0,1,33.9,43Zm1.2,0a30.442,30.442,0,0,1,6.231.733c-1.415,3.955-3.665,6.633-6.231,7Zm6.607-.411A31.59,31.59,0,0,0,35.1,41.8V34.591h7.788a29.993,29.993,0,0,1-1.181,8Zm-6.607-9.2V26.178a31.579,31.579,0,0,0,6.607-.788,30,30,0,0,1,1.181,8Zm0-8.413V17.248c2.566.365,4.815,3.043,6.231,7A30.474,30.474,0,0,1,35.1,24.979ZM24.914,34.591a31.118,31.118,0,0,0,1.211,8.3A20.853,20.853,0,0,0,21.574,44.7a16.757,16.757,0,0,1-3.85-10.107Zm17.963,8.3a31.118,31.118,0,0,0,1.211-8.3h7.19A16.754,16.754,0,0,1,47.428,44.7,20.834,20.834,0,0,0,42.877,42.887Z" transform="translate(-7.052 -5.424)" fill="#55536f"/><path d="M394.3,376.835v-9.468A2.37,2.37,0,0,0,391.936,365H375.367A2.37,2.37,0,0,0,373,367.367V378.11a3.535,3.535,0,0,0,1.333,2.774l2.218,1.775v-2.272a1.184,1.184,0,0,1,1.184-1.183h14.2a2.37,2.37,0,0,0,2.367-2.367Zm-17.161-3.551a1.775,1.775,0,1,1,1.775-1.775,1.775,1.775,0,0,1-1.775,1.775Zm6.509,0a1.775,1.775,0,1,1,1.775-1.775,1.775,1.775,0,0,1-1.775,1.775Zm6.509,0a1.775,1.775,0,1,1,1.775-1.775,1.775,1.775,0,0,1-1.775,1.775Zm0,0" transform="translate(-370 -362.185)" fill="#76b740"/></g></svg>