<svg xmlns="http://www.w3.org/2000/svg" xmlns:xlink="http://www.w3.org/1999/xlink" width="50" height="50" viewBox="0 0 50 50"><defs><clipPath id="a"><rect width="50" height="50"/></clipPath></defs><g id="b" clip-path="url(#a)"><g clip-path="url(#a)"><g transform="translate(3.046 3.371)"><path d="M29.34,221.886H1.443a1.443,1.443,0,1,1,0-2.886h27.9a1.443,1.443,0,0,1,0,2.886Zm0,0" transform="translate(0 -198.947)" fill="#76b740"/><path d="M225.447,151.91a1.444,1.444,0,0,1-1.019-2.464l6.676-6.676-6.676-6.676a1.444,1.444,0,1,1,2.042-2.042l7.7,7.7a1.443,1.443,0,0,1,0,2.041l-7.7,7.7a1.432,1.432,0,0,1-1.021.426Zm0,0" transform="translate(-203.802 -121.274)" fill="#76b740"/><path d="M56.27,42.658a21.054,21.054,0,0,1-19.7-13.418,1.443,1.443,0,1,1,2.686-1.055,18.278,18.278,0,1,0,0-13.375,1.443,1.443,0,1,1-2.686-1.055,21.164,21.164,0,1,1,19.7,28.9Zm0,0" transform="translate(-33.182 0)" fill="#149ade"/></g></g></g></svg>