<svg xmlns="http://www.w3.org/2000/svg" xmlns:xlink="http://www.w3.org/1999/xlink" width="60" height="60" viewBox="0 0 60 60"><defs><clipPath id="b"><rect width="60" height="60"/></clipPath></defs><g id="a" clip-path="url(#b)"><g transform="translate(-13.165 6.092)"><path d="M156.889,125.181H132.981A4.987,4.987,0,0,1,128,120.2V90.315a4.986,4.986,0,0,1,4.981-4.981h23.908a4.986,4.986,0,0,1,4.981,4.981V120.2A4.987,4.987,0,0,1,156.889,125.181ZM132.981,87.326a2.992,2.992,0,0,0-2.989,2.989V120.2a2.992,2.992,0,0,0,2.989,2.989h23.908a2.992,2.992,0,0,0,2.989-2.989V90.315a2.992,2.992,0,0,0-2.989-2.989Z" transform="translate(-96.705 -77.364)" fill="#009be4" stroke="#149ade" stroke-width="0.5"/><path d="M28.306,41.84H26.314a4.987,4.987,0,0,1-4.981-4.981V4.981A4.987,4.987,0,0,1,26.314,0H50.222A4.987,4.987,0,0,1,55.2,4.981a1,1,0,0,1-1.992,0,2.992,2.992,0,0,0-2.989-2.989H26.314a2.992,2.992,0,0,0-2.989,2.989V36.859a2.992,2.992,0,0,0,2.989,2.989h1.992a1,1,0,1,1,0,1.992Z" fill="#009be4" stroke="#149ade" stroke-width="0.5"/><path d="M230.268,343.326H214.329a1,1,0,1,1,0-1.992h15.939a1,1,0,0,1,0,1.992Z" transform="translate(-174.069 -309.456)" fill="#5bba21" stroke="#76b740" stroke-width="0.5"/><path d="M230.268,428.659H214.329a1,1,0,0,1,0-1.992h15.939a1,1,0,0,1,0,1.992Z" transform="translate(-174.069 -386.82)" fill="#5bba21" stroke="#76b740" stroke-width="0.5"/><path d="M230.268,257.992H214.329a1,1,0,1,1,0-1.992h15.939a1,1,0,0,1,0,1.992Z" transform="translate(-174.069 -232.092)" fill="#5bba21" stroke="#76b740" stroke-width="0.5"/><path d="M230.268,172.659H214.329a1,1,0,1,1,0-1.992h15.939a1,1,0,0,1,0,1.992Z" transform="translate(-174.069 -154.728)" fill="#5bba21" stroke="#76b740" stroke-width="0.5"/></g></g></svg>