<svg xmlns="http://www.w3.org/2000/svg" xmlns:xlink="http://www.w3.org/1999/xlink" width="40" height="40" viewBox="0 0 40 40"><defs><clipPath id="b"><rect width="40" height="40"/></clipPath></defs><g id="a" clip-path="url(#b)"><g transform="translate(-2334.675 -274.631)"><path d="M2433.892,361.13a2.208,2.208,0,0,0-2.079-2.326c-.248-.034-.5-.061-.747-.089-.734-.089-1.427-.164-2.092-.309a21.776,21.776,0,0,1-7.9-3.691,2.758,2.758,0,0,0-1.565-.617,2.8,2.8,0,0,0-1.557.61c-3.726,2.559-7.08,3.863-10.552,4.082a2.213,2.213,0,0,0-2.292,2.464v2.731c-.006,2.518-.006,5.119.021,7.684a13.794,13.794,0,0,0,.356,2.943,13.292,13.292,0,0,0,3.732,6.456,25.59,25.59,0,0,0,9.434,5.873,2.424,2.424,0,0,0,.836.151,2.607,2.607,0,0,0,1.029-.213c.213-.1.433-.185.646-.274l.021-.006c.94-.406,1.908-.823,2.854-1.317a20.86,20.86,0,0,0,7.3-6.024,11.729,11.729,0,0,0,2.49-6.586c.021-.439.034-.905.042-1.433l.034-4.24v-1.721c0-1.387,0-2.766-.007-4.144" transform="translate(-64.234 -73.472)" fill="#149ade"/><path d="M4875.058-3560.376a2.462,2.462,0,0,1-.837-.15,25.6,25.6,0,0,1-9.434-5.874,13.276,13.276,0,0,1-3.73-6.456,13.772,13.772,0,0,1-.357-2.942c-.028-2.7-.026-5.4-.021-7.684v-2.73a2.215,2.215,0,0,1,2.292-2.464c3.464-.219,6.817-1.517,10.552-4.083a2.793,2.793,0,0,1,1.557-.61,2.743,2.743,0,0,1,1.564.617,21.731,21.731,0,0,0,7.9,3.691c.584.127,1.188.2,1.828.277l.266.032.17.02c.189.021.385.043.577.07a2.206,2.206,0,0,1,2.079,2.327c.005,1.211.006,2.438.007,3.59v2.276l-.034,4.24c-.007.52-.021.989-.042,1.433a11.736,11.736,0,0,1-2.491,6.587,20.863,20.863,0,0,1-7.3,6.024c-.92.479-1.863.887-2.774,1.282l-.011,0-.069.03-.021.006-.161.067c-.163.068-.327.136-.485.206A2.607,2.607,0,0,1,4875.058-3560.376Zm.022-31.787a2.579,2.579,0,0,0-1.439.564,19.115,19.115,0,0,1-9.747,3.77,2.046,2.046,0,0,0-2.117,2.276v2.522c-.005,2.12-.007,4.622.02,7.1a12.683,12.683,0,0,0,.329,2.718,12.279,12.279,0,0,0,3.447,5.965,23.675,23.675,0,0,0,8.714,5.425,2.26,2.26,0,0,0,.773.139,2.394,2.394,0,0,0,.95-.2c.174-.078.354-.153.528-.225l.018-.007.052-.021.019-.006.013-.005c.861-.371,1.751-.755,2.624-1.211a19.284,19.284,0,0,0,6.743-5.564,10.844,10.844,0,0,0,2.3-6.084c.019-.393.032-.813.04-1.324l.031-3.917v-2.47c0-.951,0-1.966-.005-2.948a2.041,2.041,0,0,0-1.92-2.15c-.187-.025-.382-.047-.57-.069l-.029,0-.092-.01-.209-.025c-.6-.072-1.171-.14-1.724-.26a20.083,20.083,0,0,1-7.3-3.41A2.545,2.545,0,0,0,4875.08-3592.163Z" transform="translate(-2519.808 3874.046)" fill="#555370" stroke="rgba(0,0,0,0)" stroke-miterlimit="10" stroke-width="1"/><path d="M2572.527,496.587h-2.3a1.694,1.694,0,1,1,0-3.389h4.048a.823.823,0,1,0,0-1.646H2572.2v-1.578a.823.823,0,0,0-1.646,0v1.578h-.322a3.341,3.341,0,0,0,0,6.682h2.3a1.694,1.694,0,1,1,0,3.389h-4.124a.823.823,0,0,0,0,1.647h2.148v1.6a.823.823,0,0,0,1.646,0v-1.6h.37a3.341,3.341,0,0,0-.048-6.682" transform="translate(-216.118 -200.253)" fill="#e7e7e6"/><path d="M2757.9,281.885h0a3.676,3.676,0,0,0-3.027-3.027,3.027,3.027,0,0,1,6.054,0,3.679,3.679,0,0,0-3.027,3.027" transform="translate(-392.583)" fill="#6eb13c"/><path d="M2338.341,572.363h0a1.666,1.666,0,0,1,0-3.332,1.666,1.666,0,1,1,0,3.332" transform="translate(0 -275.24)" fill="#6eb13c"/><path d="M2855.382,377.982h0a2.026,2.026,0,0,0-1.667-1.666,1.666,1.666,0,1,1,3.333,0,2.026,2.026,0,0,0-1.666,1.666" transform="translate(-485.369 -92.766)" fill="#6eb13c"/></g></g></svg>