<svg xmlns="http://www.w3.org/2000/svg" width="32.734" height="21.074" viewBox="0 0 32.734 21.074"><g transform="translate(-2249 -4348)"><g transform="translate(0 1.074)"><rect width="20" height="3" rx="1.5" transform="translate(2249 4347.925)" fill="#76b740"/><rect width="16" height="3" rx="1.5" transform="translate(2249 4355.925)" fill="#149ade"/><rect width="12" height="3" rx="1.5" transform="translate(2249 4363.925)" fill="#149ade"/></g><path d="M272.533,11.2,267.9,6.564a.73.73,0,0,0-1.032,0L262.226,11.2a.73.73,0,0,0,0,1.032l.516.516a.73.73,0,0,0,1.032,0l2.51-2.51V26.695a.73.73,0,0,0,.73.73h.73a.73.73,0,0,0,.73-.73V10.239l2.51,2.51a.73.73,0,0,0,1.032,0l.516-.516A.73.73,0,0,0,272.533,11.2Z" transform="translate(2543.747 4375.424) rotate(180)" fill="#565271"/></g></svg>