<svg xmlns="http://www.w3.org/2000/svg" xmlns:xlink="http://www.w3.org/1999/xlink" width="126" height="40" viewBox="0 0 126 40"><defs><clipPath id="b"><rect width="126" height="40"/></clipPath></defs><g id="a" clip-path="url(#b)"><g transform="translate(1)"><path d="M7653.56-2628.251a6.873,6.873,0,0,1,6.874,6.873,6.873,6.873,0,0,1-6.874,6.873,6.873,6.873,0,0,1-6.873-6.873,6.873,6.873,0,0,1,6.873-6.873" transform="translate(-7618.564 2640.857)" fill="#76b740"/><path d="M7705.441-2578.143c-.14-.149-.281-.3-.441-.481a2.965,2.965,0,0,1-1.853.592c-1.633,0-2.355-.971-2.355-1.914a2.137,2.137,0,0,1,1.283-1.934v-.04a2.046,2.046,0,0,1-.511-1.3,1.852,1.852,0,0,1,2.024-1.783,1.645,1.645,0,0,1,1.833,1.584c0,.681-.4,1.263-1.333,1.734l-.01.04c.392.431.8.923,1.133,1.263a4.384,4.384,0,0,0,.57-1.644h1.363a5.046,5.046,0,0,1-1.124,2.566c.382.43.771.871,1.194,1.323h-1.773m-1.153-1.332c-.42-.42-.972-1.032-1.523-1.654a1.123,1.123,0,0,0-.531.932,1.06,1.06,0,0,0,1.123,1.063,1.359,1.359,0,0,0,.932-.341m-1.363-3.889a1.445,1.445,0,0,0,.46.972c.492-.341.742-.6.742-.992a.616.616,0,0,0-.592-.672.641.641,0,0,0-.61.692" transform="translate(-7668.682 2600.799)" fill="#fff"/></g><g transform="translate(43.074 3.827)"><path d="M7897.406-2661.5h22.972a.779.779,0,0,0,.751-.817v-3.4a5.383,5.383,0,0,0-5.343-5.416h-2.475v-1.068a6.818,6.818,0,0,0,.9-.817,7.619,7.619,0,0,0,2.154-5.369v-3.751a.751.751,0,0,0,.684-.778v-2.268a.792.792,0,0,0-.46-.716.272.272,0,0,1,0-.048,7.567,7.567,0,0,0-7.53-6.6h-.327a7.617,7.617,0,0,0-5.29,2.135,7.451,7.451,0,0,0-2.243,4.436h-.126a.794.794,0,0,0-.793.792v2.268a.793.793,0,0,0,.793.791h.34v3.736a7.642,7.642,0,0,0,2.165,5.37,6.676,6.676,0,0,0,.895.8v1.082h-2.479a5.382,5.382,0,0,0-5.339,5.416v3.4a.781.781,0,0,0,.752.817m.833-3.287h21.3v1.7h-21.3Zm3.628-19.6h13.6v.68h-13.6Zm10.035,4.055a.715.715,0,0,1-.437-.127.836.836,0,0,1,.878,0,.713.713,0,0,1-.44.127m-6.023-.251a.73.73,0,0,1,.438.126.836.836,0,0,1-.879,0,.742.742,0,0,1,.44-.126m2.059.125a1.784,1.784,0,0,0-1.567-1.662h5.044a1.787,1.787,0,0,0-1.568,1.662,1.864,1.864,0,0,0,1.952,1.708l-.757.078-1.743-1.037a.8.8,0,0,0-.812,0l-1.743,1.037-.756-.078a1.864,1.864,0,0,0,1.951-1.708m4.455-1.662h2.389v3.066l-2.266.231a1.76,1.76,0,0,0,1.437-1.634,1.775,1.775,0,0,0-1.56-1.663m-3.662-8.838h.329a5.994,5.994,0,0,1,5.92,4.986h-12.174a6.044,6.044,0,0,1,5.925-4.986m-3.34,8.838a1.788,1.788,0,0,0-1.57,1.662,1.771,1.771,0,0,0,1.448,1.634l-2.27-.231v-3.066h2.392Zm-2.35,4.667,3.8.386a.8.8,0,0,0,.485-.109l1.564-.927,1.564.927a.776.776,0,0,0,.405.114c.026,0,.052,0,.08,0l3.8-.386a6.084,6.084,0,0,1-1.669,3.332,5.777,5.777,0,0,1-4.181,1.793,5.771,5.771,0,0,1-4.181-1.793,6.075,6.075,0,0,1-1.673-3.333m5.86,6.711a7.534,7.534,0,0,0,2.821-.557v.558l-.768.466a3.988,3.988,0,0,1-4.25-.045l-.646-.41v-.575a7.468,7.468,0,0,0,2.843.563m-6.908,1.2h3.057l.789.531a5.531,5.531,0,0,0,5.936.056l.932-.59h3.083a3.812,3.812,0,0,1,3.736,3.174H7898.26a3.8,3.8,0,0,1,3.732-3.171" transform="translate(-7896.654 2692.548)" fill="#555370"/><path d="M0,0H21.3V1.7H0Z" transform="translate(1.626 27.76)" fill="#0089ce"/><rect width="21.303" height="1.7" transform="translate(1.626 27.76)" fill="#149ade"/><path d="M7982.9-2597.115a1.787,1.787,0,0,0-1.569-1.662h5.047a1.787,1.787,0,0,0-1.571,1.662,1.866,1.866,0,0,0,1.954,1.707l-.756.079-1.746-1.037a.8.8,0,0,0-.811,0l-1.745,1.037-.757-.079a1.866,1.866,0,0,0,1.954-1.707" transform="translate(-7971.577 2609.201)" fill="#149ade"/><path d="M7982.9-2597.115a1.787,1.787,0,0,0-1.569-1.662h5.047a1.787,1.787,0,0,0-1.571,1.662,1.866,1.866,0,0,0,1.954,1.707l-.756.079-1.746-1.037a.8.8,0,0,0-.811,0l-1.745,1.037-.757-.079A1.866,1.866,0,0,0,7982.9-2597.115Z" transform="translate(-7971.577 2609.201)" fill="none"/><path d="M8038.6-2598.779h2.389v3.066l-2.268.231a1.763,1.763,0,0,0,1.438-1.634,1.775,1.775,0,0,0-1.56-1.664" transform="translate(-8022.823 2609.202)" fill="#149ade"/><path d="M8038.6-2598.779h2.389v3.066l-2.268.231a1.763,1.763,0,0,0,1.438-1.634A1.775,1.775,0,0,0,8038.6-2598.779Z" transform="translate(-8022.823 2609.202)" fill="none"/><path d="M7956.495-2598.788a1.788,1.788,0,0,0-1.568,1.662,1.77,1.77,0,0,0,1.446,1.634l-2.268-.231v-3.066h2.39Z" transform="translate(-7947.718 2609.211)" fill="#149ade"/><path d="M7956.495-2598.788a1.788,1.788,0,0,0-1.568,1.662,1.77,1.77,0,0,0,1.446,1.634l-2.268-.231v-3.066h2.39Z" transform="translate(-7947.718 2609.211)" fill="none"/></g><g transform="translate(2839.075 -4190.706)"><path d="M6891.612-1287.026l.064-.314c.945-4.794-.422-8.346-1.626-11.481-1.119-2.9-2.084-5.4-1.234-8.468a.676.676,0,0,0-.192-.682.668.668,0,0,0-.695-.139,17.317,17.317,0,0,0-8.635,7.186,30.071,30.071,0,0,0-2.526,6.466c-2.514-1.32-2.006-5.486-2-5.531a.69.69,0,0,0-.2-.583.683.683,0,0,0-.6-.177c-.157.029-3.926.787-5.985,7.433-.074.221-.139.443-.2.667a12.271,12.271,0,0,0,8.519,15.093,12.271,12.271,0,0,0,15.094-8.522c.088-.328.152-.635.214-.948" transform="translate(-9704.082 5502.687)" fill="#505777"/><path d="M6949.773-1068.4a4.227,4.227,0,0,1-2.768-5.287c.021-.082.042-.161.074-.259a5.5,5.5,0,0,1,1-1.965,2.479,2.479,0,0,0,1.731,2.17.676.676,0,0,0,.836-.471,13.791,13.791,0,0,1,1.081-2.913,6.571,6.571,0,0,1,2.03-2.145,8.689,8.689,0,0,0,.661,2.857,7.739,7.739,0,0,1,.541,4.566c-.022.116-.045.229-.081.349a4.229,4.229,0,0,1-5.1,3.1" transform="translate(-9777.185 5292.224)" fill="#fff"/><path d="M6896.613-1257.861a5.851,5.851,0,0,0,2.031-3.029c.042-.155.071-.3.127-.575a8.917,8.917,0,0,0-.621-5.165,5.42,5.42,0,0,1-.449-3.431.68.68,0,0,0-.2-.691.669.669,0,0,0-.7-.129,7.963,7.963,0,0,0-3.81,3.334,12.579,12.579,0,0,0-.922,2.252,3.213,3.213,0,0,1-.2-1.577.685.685,0,0,0-.212-.589.675.675,0,0,0-.6-.167c-.188.039-1.873.469-2.809,3.5-.035.106-.063.208-.1.311a5.829,5.829,0,0,0,.177,3.639,10.908,10.908,0,0,1-3.669-11.4c.054-.195.11-.393.181-.607,1.211-3.9,3.008-5.5,4.069-6.129,0,2.206.756,5.3,3.695,6.12a.683.683,0,0,0,.84-.473,30.283,30.283,0,0,1,2.6-6.874,16.143,16.143,0,0,1,6.751-6.093c-.418,2.911.541,5.4,1.547,8.008,1.2,3.106,2.431,6.317,1.564,10.72l-.066.319c-.055.278-.107.557-.189.848a10.9,10.9,0,0,1-9.03,7.876" transform="translate(-9719.641 5481.978)" fill="#0089ce"/><path d="M6896.613-1257.861a5.851,5.851,0,0,0,2.031-3.029c.042-.155.071-.3.127-.575a8.917,8.917,0,0,0-.621-5.165,5.42,5.42,0,0,1-.449-3.431.68.68,0,0,0-.2-.691.669.669,0,0,0-.7-.129,7.963,7.963,0,0,0-3.81,3.334,12.579,12.579,0,0,0-.922,2.252,3.213,3.213,0,0,1-.2-1.577.685.685,0,0,0-.212-.589.675.675,0,0,0-.6-.167c-.188.039-1.873.469-2.809,3.5-.035.106-.063.208-.1.311a5.829,5.829,0,0,0,.177,3.639,10.908,10.908,0,0,1-3.669-11.4c.054-.195.11-.393.181-.607,1.211-3.9,3.008-5.5,4.069-6.129,0,2.206.756,5.3,3.695,6.12a.683.683,0,0,0,.84-.473,30.283,30.283,0,0,1,2.6-6.874,16.143,16.143,0,0,1,6.751-6.093c-.418,2.911.541,5.4,1.547,8.008,1.2,3.106,2.431,6.317,1.564,10.72l-.066.319c-.055.278-.107.557-.189.848a10.9,10.9,0,0,1-9.03,7.876" transform="translate(-9719.641 5481.978)" fill="#149ade"/></g><g transform="translate(83.325 0.75)"><path d="M8135.212-1137.081c-.231-.264-5.791-6.451-18.37-6.451s-18.139,6.187-18.371,6.451a.775.775,0,0,0-.163.713l4.641,17.015a.772.772,0,0,0,.5.528.772.772,0,0,0,.718-.118c.039-.03,3.958-2.934,12.677-2.934.871,0,1.681.036,2.455.088l-.937,1.459h-.351a.774.774,0,0,0-.774.774.774.774,0,0,0,.774.773h3.093a.774.774,0,0,0,.774-.773.774.774,0,0,0-.774-.774h-.9l.835-1.3c5.792.7,8.453,2.664,8.485,2.688a.774.774,0,0,0,.47.158.741.741,0,0,0,.247-.041.77.77,0,0,0,.5-.528l4.641-17.015a.774.774,0,0,0-.164-.713" transform="translate(-8096.729 1150.408)" fill="#555370"/><path d="M8154.342-1097.331a22.377,22.377,0,0,0-7.558-2.3l4.207-6.545h1.406l-1.479,5.425a.773.773,0,0,0,.543.949.789.789,0,0,0,.205.027.774.774,0,0,0,.745-.57l3.152-11.562a.774.774,0,0,0-.543-.949.774.774,0,0,0-.949.543l-1.251,4.59h-2.249a.778.778,0,0,0-.652.355l-4.849,7.544c-1.056-.1-2.167-.165-3.4-.165-6.905,0-10.968,1.72-12.675,2.661l-4.25-15.584c1.232-1.183,6.565-5.638,16.925-5.638,10.315,0,15.685,4.457,16.926,5.64Z" transform="translate(-8121.554 1126.974)" fill="#149ade"/><path d="M8175.932-1043.461a.775.775,0,0,0-1.037.346l-1.549,3.094a.776.776,0,0,0,.348,1.038.767.767,0,0,0,.345.082.774.774,0,0,0,.693-.427l1.547-3.094a.776.776,0,0,0-.347-1.039" transform="translate(-8167.07 1056.604)" fill="#e4e4e4"/><path d="M8202.479-1043.461a.776.776,0,0,0-1.038.346l-3.094,6.187a.774.774,0,0,0,.346,1.038.774.774,0,0,0,.346.082.768.768,0,0,0,.691-.427l3.095-6.187a.775.775,0,0,0-.346-1.039" transform="translate(-8190.524 1056.604)" fill="#e4e4e4"/></g><g transform="translate(40)"><path d="M7653.56-2628.251a6.873,6.873,0,0,1,6.874,6.873,6.873,6.873,0,0,1-6.874,6.873,6.873,6.873,0,0,1-6.873-6.873,6.873,6.873,0,0,1,6.873-6.873" transform="translate(-7618.564 2640.857)" fill="#76b740"/><path d="M7705.441-2578.143c-.14-.149-.281-.3-.441-.481a2.965,2.965,0,0,1-1.853.592c-1.633,0-2.355-.971-2.355-1.914a2.137,2.137,0,0,1,1.283-1.934v-.04a2.046,2.046,0,0,1-.511-1.3,1.852,1.852,0,0,1,2.024-1.783,1.645,1.645,0,0,1,1.833,1.584c0,.681-.4,1.263-1.333,1.734l-.01.04c.392.431.8.923,1.133,1.263a4.384,4.384,0,0,0,.57-1.644h1.363a5.046,5.046,0,0,1-1.124,2.566c.382.43.771.871,1.194,1.323h-1.773m-1.153-1.332c-.42-.42-.972-1.032-1.523-1.654a1.123,1.123,0,0,0-.531.932,1.06,1.06,0,0,0,1.123,1.063,1.359,1.359,0,0,0,.932-.341m-1.363-3.889a1.445,1.445,0,0,0,.46.972c.492-.341.742-.6.742-.992a.616.616,0,0,0-.592-.672.641.641,0,0,0-.61.692" transform="translate(-7668.682 2600.799)" fill="#fff"/></g></g></svg>