<svg xmlns="http://www.w3.org/2000/svg" xmlns:xlink="http://www.w3.org/1999/xlink" width="40" height="40" viewBox="0 0 40 40"><defs><clipPath id="b"><rect width="40" height="40"/></clipPath></defs><g id="a" clip-path="url(#b)"><path d="M106.074,117.005a.54.54,0,0,1-.737-.132c-.026-.026-.026-.053-.053-.079l-.606-1.369a.535.535,0,0,0-.632-.29l-2.791.9a.418.418,0,0,0-.263.211l-1.238,1.79a.54.54,0,0,1-.737.132.6.6,0,0,1-.211-.29h0a.507.507,0,0,0-.5-.395H96.859a.478.478,0,0,0-.369.158l-.79.816,1.922,3.607a.95.95,0,0,0,1.264.395.026.026,0,0,0,.026-.026l5.608-3.239a1.659,1.659,0,0,0,.579-.553Z" transform="translate(-76.839 -91.346)" fill="#149ade" stroke="#555370" stroke-linecap="round" stroke-linejoin="round" stroke-width="1"/><path d="M61.245,46.062l2.659-.079a.374.374,0,0,1,.158.053l2.975,2.343a.81.81,0,0,0,.5.158l3.344-.158a.567.567,0,0,1,.29.053l3.318,1.132a.542.542,0,0,0,.658-.316.334.334,0,0,0,.026-.158v-1.9a1.006,1.006,0,0,0-.474-.843L61.587,38.768a1.007,1.007,0,0,0-.948,0L47.474,46.352a1.006,1.006,0,0,0-.474.843v1.159a1.35,1.35,0,0,0,.342.9l.79.9a.225.225,0,0,0,.342.026c.026-.026.053-.079.079-.105l.263-.869a.269.269,0,0,1,.316-.158.237.237,0,0,1,.158.158h0a.269.269,0,0,0,.316.158.092.092,0,0,0,.053-.026l1.922-1.4a.251.251,0,0,0,.079-.316L51,46.378a.244.244,0,0,1,.079-.316L52.951,44.9a.2.2,0,0,1,.237,0l5.766,2.633a.247.247,0,0,0,.237-.026l1.9-1.4A.374.374,0,0,1,61.245,46.062Z" transform="translate(-40.962 -35.017)" fill="#149ade" stroke="#555370" stroke-linecap="round" stroke-linejoin="round" stroke-width="1"/><path d="M62.772,102.582l-1.448-.764a.887.887,0,0,1-.421-1h0a.8.8,0,0,0-.369-.948l-3.265-2.054a.517.517,0,0,1-.237-.237L47.421,83.624a.219.219,0,0,0-.316-.053.267.267,0,0,0-.105.184V95.341a1.074,1.074,0,0,0,.553.948l13.139,7.583a.808.808,0,0,0,.843,0l1.264-.737a.314.314,0,0,0,.132-.421C62.877,102.661,62.851,102.609,62.772,102.582Z" transform="translate(-40.962 -68.076)" fill="#149ade" stroke="#555370" stroke-linecap="round" stroke-linejoin="round" stroke-width="1"/><path d="M56.695,67.5l9.4,12.191a.511.511,0,0,0,.737.079l.053-.053.79-.816a.52.52,0,0,1,.369-.158h1.448a.507.507,0,0,1,.5.395h0a.526.526,0,0,0,.658.369.552.552,0,0,0,.29-.211l1.238-1.79a.526.526,0,0,1,.263-.211l2.791-.9a.522.522,0,0,1,.632.29l.606,1.369a.553.553,0,0,0,.711.263c.026,0,.053-.026.079-.053l2.4-1.633a.71.71,0,0,0,.184-.211L82,71.63A.518.518,0,0,0,81.841,71l-2.923-2.08a.42.42,0,0,1-.184-.237l-.421-1.08a.534.534,0,0,0-.685-.29.409.409,0,0,0-.211.158l-1.633,2.106a.55.55,0,0,1-.421.211h-1.5a.474.474,0,0,1-.395-.184l-5-5.661a.528.528,0,0,0-.711-.079l-1.448,1.053a.537.537,0,0,1-.527.053l-5.45-2.5a.56.56,0,0,0-.5.026l-1.5.922a.509.509,0,0,0-.184.685l.395.79a.53.53,0,0,1-.158.658l-1.554,1.132a.6.6,0,0,0-.132.816Z" transform="translate(-48.023 -52.527)" fill="#75b556" stroke="#555370" stroke-miterlimit="10" stroke-width="1"/><path d="M55.038,29.2,65.7,35.366a6.57,6.57,0,0,1,3.291,5.687v12.27A6.57,6.57,0,0,1,65.7,59.011l-10.69,6.161a6.618,6.618,0,0,1-6.556,0L37.791,59.011A6.57,6.57,0,0,1,34.5,53.323V41a6.57,6.57,0,0,1,3.291-5.687l10.69-6.135A6.554,6.554,0,0,1,55.038,29.2Z" transform="translate(-31.753 -27.401)" fill="none" stroke="#555370" stroke-linecap="round" stroke-linejoin="round" stroke-width="1"/></g></svg>