<svg width="47.692" height="34" viewBox="0 0 47.692 34" xmlns="http://www.w3.org/2000/svg">
    <g fill="none" fill-rule="evenodd">
        <path d="M9.852 34C4.41 34 0 29.59 0 24.148c0-5.44 4.41-9.851 9.852-9.851 5.44 0 9.851 4.41 9.851 9.851 0 5.441-4.41 9.852-9.851 9.852zM22.947 6a5.053 5.053 0 1 0 0 10.106 5.053 5.053 0 0 0 0-10.106zm3.845 8.39-4.957 7.945m-6.327-13.44L4.703 15.757" stroke="#000" stroke-width="2" stroke-linecap="round" stroke-linejoin="round"/>
        <path d="M22.797 8.967a2 2 0 1 0 0 4 2 2 0 0 0 0-4z" fill="#149ADE"/>
        <path d="M14.926 22.785a1.479 1.479 0 0 1-1.165-1.999.694.694 0 0 0-.208-.78 5.563 5.563 0 0 0-1.66-.962.698.698 0 0 0-.788.218 1.475 1.475 0 0 1-2.323 0 .698.698 0 0 0-.789-.218 5.59 5.59 0 0 0-1.546.867.702.702 0 0 0-.219.804 1.471 1.471 0 0 1-1.226 2.021.698.698 0 0 0-.61.562 5.333 5.333 0 0 0-.035 1.943c.05.311.302.55.615.585a1.471 1.471 0 0 1 1.2 2.078.686.686 0 0 0 .192.822c.49.407 1.047.727 1.645.947a.694.694 0 0 0 .803-.253 1.46 1.46 0 0 1 1.207-.634c.467.001.906.222 1.184.596a.694.694 0 0 0 .815.23 5.658 5.658 0 0 0 1.509-.901.698.698 0 0 0 .203-.796 1.471 1.471 0 0 1 1.181-2.033.698.698 0 0 0 .592-.573 5.47 5.47 0 0 0 .098-.955c0-.337-.031-.675-.094-1.007a.69.69 0 0 0-.58-.562zm-3.097 1.57a1.886 1.886 0 1 1-3.771 0 1.886 1.886 0 0 1 3.771 0z" fill="#149ADE" fill-rule="nonzero"/>
        <g fill-rule="nonzero">
            <path d="M35.846 28.107S47.692 23.09 47.692 13.05V4.015L35.846 0 24 4.015v9.035c0 10.04 11.846 15.057 11.846 15.057z" fill="#FFF"/>
            <path d="M35.846 21.08s5.923-2.509 5.923-7.528V9.034l-5.923-2.007-5.923 2.007v4.518c0 5.02 5.923 7.529 5.923 7.529z" fill="#77B841"/>
            <path d="M35.846 25.877c-.16 0-.322-.033-.474-.097-.397-.168-9.68-4.196-9.68-12.483V6.482c0-.525.334-.99.83-1.158l8.934-3.028a1.2 1.2 0 0 1 .778 0l8.935 3.028c.496.168.829.635.829 1.158v6.815c0 8.287-9.284 12.317-9.68 12.483a1.22 1.22 0 0 1-.472.097zM28.13 7.36v5.936c0 5.734 5.967 9.134 7.715 10.006 1.746-.877 7.718-4.293 7.718-10.006V7.361l-7.717-2.616-7.716 2.616z" fill="#000"/>
        </g>
    </g>
</svg>
