<svg xmlns="http://www.w3.org/2000/svg" xmlns:xlink="http://www.w3.org/1999/xlink" width="40" height="40" viewBox="0 0 40 40"><defs><clipPath id="b"><rect width="40" height="40"/></clipPath></defs><g id="a" clip-path="url(#b)"><g transform="translate(-6182.494 3112.533)"><path d="M6568.619-3065.629a6.3,6.3,0,0,0-3.173.85,6.446,6.446,0,0,0-.687.463,6.321,6.321,0,0,0-2.306,6.38,6.321,6.321,0,0,0,4.8,4.8,6.326,6.326,0,0,0,6.38-2.306,6.285,6.285,0,0,0,1.314-3.861,6.326,6.326,0,0,0-6.325-6.323" transform="translate(-356.2 -41.315)" fill="#fff"/><path d="M6596.226-2918.274a4.531,4.531,0,0,1-1.191-.858,4.436,4.436,0,0,1-.671-.854.29.29,0,0,0-.252-.144.289.289,0,0,0-.249.15.287.287,0,0,0,.009.29,4.983,4.983,0,0,0,.757.964,5.072,5.072,0,0,0,1.342.967.288.288,0,0,0,.385-.13.286.286,0,0,0-.129-.384" transform="translate(-385.868 -178.234)" fill="#0089ce"/><path d="M6641.925-3015.407a1.15,1.15,0,0,1-1.15-1.15h-.576a1.727,1.727,0,0,0,1.438,1.7v.6h.575v-.6a1.725,1.725,0,0,0,1.421-1.843,1.725,1.725,0,0,0-1.709-1.58,1.15,1.15,0,0,1-1.15-1.15,1.15,1.15,0,0,1,1.15-1.15,1.15,1.15,0,0,1,1.15,1.15h.575a1.727,1.727,0,0,0-1.437-1.7v-.6h-.575v.6a1.724,1.724,0,0,0-1.421,1.843,1.723,1.723,0,0,0,1.709,1.58,1.15,1.15,0,0,1,1.149,1.15,1.151,1.151,0,0,1-1.149,1.15" transform="translate(-429.505 -82.625)" fill="#555370"/><path d="M6753.2-3064.166a.287.287,0,0,0,.4.04.288.288,0,0,0,.041-.4,6.642,6.642,0,0,0-.909-.912.288.288,0,0,0-.406.039.288.288,0,0,0,.039.406,6.01,6.01,0,0,1,.831.831" transform="translate(-534.96 -41.429)" fill="#0089ce"/><path d="M6590.557-3044.627a5.175,5.175,0,0,0-4.112-1.5,5.169,5.169,0,0,0-3.786,2.191,5.151,5.151,0,0,0-.731,4.388.288.288,0,0,0,.355.2.287.287,0,0,0,.2-.355,4.6,4.6,0,0,1,2.087-5.228,4.6,4.6,0,0,1,5.584.709,4.541,4.541,0,0,1,.308.339,4.579,4.579,0,0,1-.153,6l-.014.013,0,0-.011.011c-.039.043-.08.088-.126.133a4.6,4.6,0,0,1-4.143,1.258.289.289,0,0,0-.338.227.288.288,0,0,0,.226.338,5.178,5.178,0,0,0,4.663-1.415c.044-.045.085-.09.128-.134l.022-.021a5.154,5.154,0,0,0-.152-7.162" transform="translate(-374.479 -59.651)" fill="#0089ce"/><path d="M6572.875-3102.919a6.614,6.614,0,0,0-4.465-6.256,6.612,6.612,0,0,0-7.365,2.194,6.459,6.459,0,0,0-1.145,1.145,6.61,6.61,0,0,0-2.385,6.662,6.611,6.611,0,0,0,5,5,6.611,6.611,0,0,0,6.662-2.387,6.591,6.591,0,0,0,1.15-1.153,6.571,6.571,0,0,0,2.545-5.209m-.575,0a5.978,5.978,0,0,1-.882,3.139,6.613,6.613,0,0,0-.58-5.3.286.286,0,0,0-.25-.155.284.284,0,0,0-.254.147.285.285,0,0,0,.008.295,6.029,6.029,0,0,1-.073,6.158,6.6,6.6,0,0,0-1.628-6.664,6.605,6.605,0,0,0-6.665-1.625,5.963,5.963,0,0,1,3.139-.883,6.024,6.024,0,0,1,3.045.823.288.288,0,0,0,.381-.109.288.288,0,0,0-.093-.386,6.622,6.622,0,0,0-5.336-.592,6.038,6.038,0,0,1,6.1-.115,6.039,6.039,0,0,1,3.085,5.265m-8.336,8.336a6.034,6.034,0,0,1-5.716-4.091,6.037,6.037,0,0,1,2.032-6.73,6.385,6.385,0,0,1,.654-.441,6.04,6.04,0,0,1,7.3.958,6.041,6.041,0,0,1,.959,7.3,6.062,6.062,0,0,1-5.225,3.007" transform="translate(-351.544)" fill="#0089ce"/><path d="M6191.5-2672.969v5.1h3.7c0-.021,0-.042,0-.064a3.164,3.164,0,0,1,3.164-3.165,3.165,3.165,0,0,1,3.165,3.165c0,.021,0,.042,0,.064h12.472a3.164,3.164,0,0,1,3.164-3.164,3.165,3.165,0,0,1,3.165,3.164h4.7v-5.1Z" transform="translate(-7.263 -410.821)" fill="#149ade"/><path d="M6184.545-2909.277h2.745a3.744,3.744,0,0,0,3.387,2.9c.091.006.182.007.271.007a3.7,3.7,0,0,0,2.446-.908,3.842,3.842,0,0,0,1.2-2h11.7a3.8,3.8,0,0,0,3.649,2.922,3.8,3.8,0,0,0,3.651-2.922h2.378a2.249,2.249,0,0,0,2.236-2.225v-2.225a6.718,6.718,0,0,0-.948-3.429,4.691,4.691,0,0,0-2.736-1.692l-.737-3.118c0-.016-.01-.023-.015-.039a3.656,3.656,0,0,0-3.515-2.573h-3.471a2.948,2.948,0,0,0-2.931-2.722h-4.542l-.875-2.586a.742.742,0,0,0-.7-.5h-2.1a.74.74,0,0,0-.7.5l-.876,2.586h-7.321a2.986,2.986,0,0,0-2.972,2.961v14.311a.776.776,0,0,0,.765.753m8.663-.675a2.272,2.272,0,0,1-2.372,2.107,2.27,2.27,0,0,1-2.163-2.321,2.271,2.271,0,0,1,2.269-2.219c.054,0,.108,0,.163.006a2.271,2.271,0,0,1,2.1,2.426m16.738,2.109a2.27,2.27,0,0,1-2.27-2.27,2.27,2.27,0,0,1,2.27-2.27,2.27,2.27,0,0,1,2.271,2.27,2.273,2.273,0,0,1-2.271,2.27m.311-15.266a2.2,2.2,0,0,1,2.1,1.535l.624,2.659h-6.175v-4.194Zm-14.085-5.812h1.042l.546,1.618h-2.133Zm-10.921,4.579a1.514,1.514,0,0,1,1.5-1.489h17.1a1.5,1.5,0,0,1,1.48,1.489v6.126a.759.759,0,0,0,.728.771h7.486a3.234,3.234,0,0,1,2.557,1.217,5.34,5.34,0,0,1,.633,2.5v2.225a.777.777,0,0,1-.764.753h-2.345a3.741,3.741,0,0,0-3.684-3.09,3.741,3.741,0,0,0-3.685,3.09h-11.634a3.742,3.742,0,0,0-3.686-3.093,3.742,3.742,0,0,0-3.685,3.093h-2.006Z" transform="translate(0 -168.578)" fill="#555370"/><path d="M6391.616-3012.4a.735.735,0,0,0,.736-.736v-1.983a.735.735,0,0,0-.736-.736.735.735,0,0,0-.735.736v1.983a.736.736,0,0,0,.735.736" transform="translate(-194.888 -88.159)" fill="#555370"/><path d="M6464.442-2975.2a.73.73,0,0,0,.441-.149l1.625-1.222a.737.737,0,0,0,.145-1.031.737.737,0,0,0-1.031-.145l-1.622,1.223a.734.734,0,0,0-.255.821.73.73,0,0,0,.7.5" transform="translate(-263.42 -123.874)" fill="#555370"/><path d="M6289.667-2976.593l1.623,1.222a.737.737,0,0,0,1.031-.145.737.737,0,0,0-.145-1.031l-1.624-1.223a.737.737,0,0,0-1.031.145.737.737,0,0,0,.146,1.032" transform="translate(-99.366 -123.854)" fill="#555370"/><path d="M6334.269-2815.868h-2.83v-2.83h-3.173v2.83h-2.831v3.173h2.831v2.83h3.173v-2.83h2.83Z" transform="translate(-133.303 -273.685)" fill="#6eb13c"/><path d="M6316.793-2823.307h2.19v2.209a.7.7,0,0,0,.7.733h2.721a.7.7,0,0,0,.7-.733v-2.209h2.189a.774.774,0,0,0,.752-.763v-2.8a.725.725,0,0,0-.752-.707H6323.1v-2.267a.718.718,0,0,0-.7-.75h-2.721a.717.717,0,0,0-.7.75v2.267h-2.19a.725.725,0,0,0-.752.707v2.8a.773.773,0,0,0,.752.763m.718-2.8h2.172a.793.793,0,0,0,.771-.765v-2.252h1.177v2.252a.794.794,0,0,0,.772.765h2.171v1.324H6322.4a.744.744,0,0,0-.772.709v2.235h-1.177v-2.235a.745.745,0,0,0-.771-.709h-2.172Z" transform="translate(-124.462 -262.494)" fill="#555370"/></g></g></svg>