<svg xmlns="http://www.w3.org/2000/svg" xmlns:xlink="http://www.w3.org/1999/xlink" width="40" height="40" viewBox="0 0 40 40"><defs><clipPath id="b"><rect width="40" height="40"/></clipPath></defs><g id="a" clip-path="url(#b)"><g transform="translate(-1411.275 2646.45)"><path d="M1430.266-2643.45a17.01,17.01,0,0,0-16.991,16.991,17.01,17.01,0,0,0,16.991,16.991,17.01,17.01,0,0,0,16.991-16.991,17.01,17.01,0,0,0-16.991-16.991m0,31.15a14.175,14.175,0,0,1-14.159-14.159,14.176,14.176,0,0,1,14.159-14.159,14.176,14.176,0,0,1,14.159,14.159,14.175,14.175,0,0,1-14.159,14.159" transform="translate(0 0)" fill="#555370"/><path d="M1533.677-2533.312a11.483,11.483,0,0,1-11.483,11.483,11.483,11.483,0,0,1-11.483-11.483,11.483,11.483,0,0,1,11.483-11.483,11.483,11.483,0,0,1,11.483,11.483" transform="translate(-91.928 -93.078)" fill="#149ade"/><rect width="18.323" height="3.564" transform="translate(1421.192 -2627.945)" fill="#e7e7e6"/><path d="M2000.71-2588.414a1.676,1.676,0,0,1-1.676,1.676,1.676,1.676,0,0,1-1.677-1.676,1.677,1.677,0,0,1,1.677-1.677,1.676,1.676,0,0,1,1.676,1.677" transform="translate(-551.063 -53.343)" fill="#75b556"/><path d="M1465.052-2071.145a.838.838,0,0,1-.838.838.838.838,0,0,1-.838-.838.838.838,0,0,1,.838-.838.838.838,0,0,1,.838.838" transform="translate(-47.269 -539.161)" fill="#75b556"/></g></g></svg>