<svg xmlns="http://www.w3.org/2000/svg" xmlns:xlink="http://www.w3.org/1999/xlink" width="40" height="40" viewBox="0 0 40 40"><defs><clipPath id="b"><rect width="40" height="40"/></clipPath></defs><g id="a" clip-path="url(#b)"><g transform="translate(0.96 4)"><path d="M1272.433,359.1l2.618.651a2.214,2.214,0,1,0-1.059-3.685.466.466,0,0,0,.671.648,1.281,1.281,0,1,1,.613,2.133l-2.618-.651a.466.466,0,1,0-.225.9" transform="translate(-1268.107 -355.386)" fill="#555370"/><path d="M1269.288,364.536l7.339,1.824a1.7,1.7,0,1,0-.816-2.836.467.467,0,1,0,.672.648.771.771,0,1,1,.369,1.283l-7.339-1.824a.467.467,0,0,0-.225.906" transform="translate(-1266.965 -358.152)" fill="#555370"/><path d="M1272.583,370.928a1.23,1.23,0,0,1-.884-.853.466.466,0,0,0-.9.259,2.161,2.161,0,1,0,2.6-2.694l-2.457-.611a.466.466,0,1,0-.225.905l2.457.61a1.228,1.228,0,1,1-.592,2.384" transform="translate(-1267.484 -359.608)" fill="#555370"/><path d="M1268.657,367.421l.013,0a.466.466,0,0,0,.225-.905l-.013,0a.466.466,0,0,0-.225.905" transform="translate(-1266.736 -359.422)" fill="#555370"/><path d="M1301.828,399.93a4.083,4.083,0,0,0-5.769,0,2.854,2.854,0,0,1-4.036,0h0a4.083,4.083,0,0,0-5.769,0,2.854,2.854,0,0,1-4.036,0h0a4.083,4.083,0,0,0-5.769,0,2.853,2.853,0,0,1-4.036,0h0a4.083,4.083,0,0,0-5.769,0l-.613.613a.613.613,0,0,0,.852.882l.015-.015.613-.613a2.855,2.855,0,0,1,4.036,0,4.079,4.079,0,0,0,5.769,0h0a2.856,2.856,0,0,1,4.036,0,4.078,4.078,0,0,0,5.768,0h0a2.856,2.856,0,0,1,4.036,0,4.079,4.079,0,0,0,5.769,0h0a2.856,2.856,0,0,1,4.036,0l.613.613a.613.613,0,1,0,.881-.852l-.015-.015Z" transform="translate(-1265.843 -371.125)" fill="#555370"/><path d="M1302.012,368.511a.613.613,0,0,0,0-1.226h-12.257a.613.613,0,0,0-.566.377l-2.915,7-9.425.587a.613.613,0,0,0-.576.613V376l-.011.01a2.87,2.87,0,0,1-3.846-.174,4.079,4.079,0,0,0-5.769,0h0l-.613.613a.613.613,0,0,0,.866.866l.613-.613a2.853,2.853,0,0,1,4.036,0h0a4.012,4.012,0,0,0,4.724.747v2.109a2.442,2.442,0,0,0-2.121,3.362,2.826,2.826,0,0,1-1.736-.808,4.084,4.084,0,0,0-5.769,0l-.613.613a.613.613,0,0,0,.866.866l.613-.613a2.857,2.857,0,0,1,4.036,0,4.083,4.083,0,0,0,5.769,0,2.858,2.858,0,0,1,4.036,0,4.083,4.083,0,0,0,5.769,0,2.857,2.857,0,0,1,4.036,0,4.083,4.083,0,0,0,5.769,0,2.857,2.857,0,0,1,4.036,0l.613.613a.613.613,0,0,0,.867-.866l-.613-.613a4.084,4.084,0,0,0-5.769,0,2.856,2.856,0,0,1-4.036,0,4.071,4.071,0,0,0-3.236-1.176,4.28,4.28,0,0,0-7.988.257,4.1,4.1,0,0,0-1.466-.274v-.763a.613.613,0,0,0-.613-.613H1277.5v-3.1l9.214-.575h15.3a.613.613,0,0,0,0-1.226h-4.29v-6.128Z" transform="translate(-1265.85 -359.706)" fill="#555370"/><path d="M1294,386.528a3.066,3.066,0,0,1,2.73,1.685,4.063,4.063,0,0,0-1.321.884,2.856,2.856,0,0,1-4.036,0,4.289,4.289,0,0,0-.32-.288A3.044,3.044,0,0,1,1294,386.528Z" transform="translate(-1274.996 -366.693)" fill="#75b556" stroke="#75b556" stroke-miterlimit="10" stroke-width="0.456"/><path d="M1283.436,388.794a4.051,4.051,0,0,0-1.655,1,2.828,2.828,0,0,1-.988.639,1.221,1.221,0,0,1,.955-1.982h1.687Z" transform="translate(-1271.174 -367.392)" fill="#149ade"/><path d="M1308.894,375.338h-5.516v-1.627a.814.814,0,0,1,.613-.782v.57a.613.613,0,0,0,1.226,0v-2.452a.613.613,0,0,0-1.226,0v.634a2.045,2.045,0,0,0-1.838,2.029v1.627h-2.145l2.556-6.128h6.33Z" transform="translate(-1278.247 -360.405)" fill="#149ade"/><path d="M1310.723,382.68a.613.613,0,1,0,0,1.225h1.225a.613.613,0,1,0,0-1.225Z" transform="translate(-1281.915 -365.296)" fill="#808183"/></g></g></svg>