<svg xmlns="http://www.w3.org/2000/svg" xmlns:xlink="http://www.w3.org/1999/xlink" width="40" height="40" viewBox="0 0 40 40"><defs><clipPath id="b"><rect width="40" height="40"/></clipPath></defs><g id="a" clip-path="url(#b)"><g transform="translate(2.9 1.875)"><path d="M1402.635,1816.123s-1.043-4.543,2.456-5.034a2.846,2.846,0,0,1,3.131,4.236c-.86,1.413-3.316,3.132-4.482,1.9" transform="translate(-1380.895 -1806.923)" fill="#149ade"/><path d="M1377.369,1814.57l-.676-3.868,2.947,1.412,5.71-2.026-2.456,3.315,2.579,1.842-1.535.614.184,3.5-2.272-1.105-3.684,1.842-.307-2.824-3.131-.921,2.087-1.965" transform="translate(-1371.408 -1806.598)" fill="#75b556" stroke="#75b556" stroke-miterlimit="10" stroke-width="0.513"/><g transform="translate(4.932 3.387)"><path d="M1405.5,1811.235a2.887,2.887,0,0,0-5.241,1l-.067.323a3.649,3.649,0,0,0-7.1,1.174v.549a3.639,3.639,0,0,0,1.158,2.664,4.061,4.061,0,0,0-.756.388,3.993,3.993,0,0,0-1.728,2.546l-.516,2.564-1.183,1.19h-4.923a2.042,2.042,0,0,0-2.041,2.041,2.016,2.016,0,0,0,.155.779h-.512a2.607,2.607,0,0,0-2.521,1.949l-.745,2.855a.631.631,0,0,0,1.221.32l.744-2.858a1.345,1.345,0,0,1,1.3-1.005h9.241a.624.624,0,0,0,.447-.187l3.193-3.225a.631.631,0,1,0-.9-.889l-3.008,3.039h-6.58a.779.779,0,0,1,0-1.559h5.186a.629.629,0,0,0,.448-.186l3.61-3.631a.631.631,0,0,0-.9-.89l-.631.635.14-.691a2.754,2.754,0,1,1,5.393,1.117l0,.015-1.582,7.63a1.9,1.9,0,0,1-1.854,1.509h-8.966a2.9,2.9,0,0,0-2.87,2.585.624.624,0,0,0-.032.088l-1.933,7.416a.635.635,0,0,1-.614.475h-1.465a.634.634,0,0,1-.614-.8l1.053-4.043a.631.631,0,0,0-1.221-.318l-1.055,4.043a1.9,1.9,0,0,0,1.836,2.375h1.465a1.9,1.9,0,0,0,1.835-1.418l1.463-5.616c.029.032.058.063.089.1a2.971,2.971,0,0,0,2.1.885h3.071l-2.156,5.179a.632.632,0,0,0,.583.874h9.73a.63.63,0,0,0,.583-.874l-2.158-5.179h3.163a2.9,2.9,0,0,0,2.826-2.3l1.382-6.663a.631.631,0,0,0-1.236-.255l-1.38,6.663a1.633,1.633,0,0,1-1.592,1.3H1386.03a1.694,1.694,0,0,1-1.2-.509,1.588,1.588,0,0,1-.465-1.149,1.635,1.635,0,0,1,1.626-1.593h8.966a3.168,3.168,0,0,0,3.089-2.515l3.453-16.658a1.626,1.626,0,1,1,3.183.66l-1.873,9.044a.63.63,0,1,0,1.234.255l1.874-9.044A2.868,2.868,0,0,0,1405.5,1811.235Zm-11.185,24.94,2,4.791h-7.839l2-4.791Zm2.422-19.507a2.391,2.391,0,0,1-2.388-2.388v-.549a2.388,2.388,0,1,1,4.776,0v.549A2.389,2.389,0,0,1,1396.737,1816.668Zm2.246,1.721a4.092,4.092,0,0,0-.725-.793,3.666,3.666,0,0,0,1.039-.717Z" transform="translate(-1377.175 -1809.932)" fill="#555370"/></g><path d="M1396.252,1829.143c2.806,6.7,7.215,12.184,12.319,15.238a.691.691,0,0,1-.71,1.186q-.634-.379-1.249-.8a8.019,8.019,0,0,1-3,2.692.691.691,0,0,1-.672-1.207,6.618,6.618,0,0,0,2.549-2.3,30.336,30.336,0,0,1-5.734-5.86,39.619,39.619,0,0,1-5.639-10.646.671.671,0,0,1-.039-.268.691.691,0,0,1,1.342-.193c.034.1.069.2.1.294a.734.734,0,0,1,.082.03" transform="translate(-1378.021 -1812.216)" fill="#555370"/><g transform="translate(2.007 2.356)"><g transform="translate(0)"><path d="M1386.18,1814.5l-3.4-1.637,2.911-3.549a.579.579,0,0,0-.675-.9l-5.913,2.527-2.946-1.531a.58.58,0,0,0-.829.659l.874,3.4-3.194,1.99a.579.579,0,0,0,.239,1.066l3.712.436-.805,3.01a.579.579,0,0,0,.831.661l4.62-2.45,1.654,1.636a.581.581,0,0,0,.974-.54l-.52-3.511,2.262-.168a.58.58,0,0,0,.208-1.1Zm-3.177.159a.581.581,0,0,0-.532.663l.364,2.452-.721-.714a.58.58,0,0,0-.679-.1l-3.82,2.026.635-2.372a.58.58,0,0,0-.493-.725l-2.736-.321,2.151-1.34a.578.578,0,0,0,.256-.635l-.656-2.557,2.039,1.058a.575.575,0,0,0,.494.02l3.988-1.7-1.879,2.29a.579.579,0,0,0,.2.889l2.116,1.018Z" transform="translate(-1372.732 -1808.365)" fill="#555370"/></g></g><g transform="translate(7.417 0)"><g transform="translate(0)"><path d="M1382.368,1804.83a.1.1,0,0,0-.085-.045h-1.228a.105.105,0,0,0-.1.137l.615,1.792a.1.1,0,0,0,.1.071.106.106,0,0,0,.1-.071l.615-1.792A.1.1,0,0,0,1382.368,1804.83Z" transform="translate(-1380.951 -1804.786)" fill="#555370"/></g></g><g transform="translate(0 3.861)"><path d="M1372.181,1811.928l-1.808-1.215a.362.362,0,0,0-.552.21l-.126.489a.361.361,0,0,0,.307.45l2.109.257a.1.1,0,0,0,.07-.19Z" transform="translate(-1369.683 -1810.652)" fill="#555370"/></g><g transform="translate(14.561 11.389)"><g transform="translate(0)"><path d="M1394.211,1823.048l-.206-.881a.1.1,0,0,0-.145-.071l-2,.954a.1.1,0,0,0-.056.117.1.1,0,0,0,.1.079l2.2-.074a.1.1,0,0,0,.1-.126Z" transform="translate(-1391.805 -1822.088)" fill="#555370"/></g></g></g></g></svg>