<svg xmlns="http://www.w3.org/2000/svg" xmlns:xlink="http://www.w3.org/1999/xlink" width="40" height="40" viewBox="0 0 40 40"><defs><clipPath id="b"><rect width="40" height="40"/></clipPath></defs><g id="a" clip-path="url(#b)"><g transform="translate(5.179 2.25)"><path d="M1433.386,1093l-11.473,5.91a5.663,5.663,0,0,1,.47-7.34c3.371-3.571,9.582-2.2,11,1.43" transform="translate(-1414.991 -1089.205)" fill="#149ade"/><path d="M1438.688,1117.5a.572.572,0,0,0-.573.57v1.574a.571.571,0,0,0,1.141,0v-1.574a.569.569,0,0,0-.569-.57" transform="translate(-1419.61 -1096.658)" fill="#555370"/><path d="M1433.146,1100.166a.57.57,0,0,0-.765,0l-2.114,2.115H1428.2a.569.569,0,1,0,0,1.138h4.289a.569.569,0,0,0,0-1.138h-.613l1.307-1.308a.569.569,0,0,0-.04-.805" transform="translate(-1416.821 -1092.006)" fill="#555370"/><path d="M1435.554,1107.582a9.283,9.283,0,0,0-3.47-4.288l-1.786-1.183a7.414,7.414,0,1,0-8.879.626l-.775.55a24.984,24.984,0,0,0-7.416,8.325,2.649,2.649,0,0,0-.325,1.265v.418a2.609,2.609,0,0,0,.757,1.846,2.582,2.582,0,0,0,1.828.763h2.545v6.841a.569.569,0,1,0,1.139,0V1115.9h5.138a2.253,2.253,0,0,0,2.262-2.248,2.379,2.379,0,0,0-.026-.361l.8-1.062a26.44,26.44,0,0,0,4.035-7.581c.048-.14.085-.26.12-.369a8.118,8.118,0,0,1,3,3.728,8.729,8.729,0,0,1,.634,3.276v.8a.57.57,0,1,0,1.139,0v-.8a9.806,9.806,0,0,0-.719-3.706m-20.066,7.184a1.429,1.429,0,0,1-1.014-.427,1.468,1.468,0,0,1-.432-1.043v-.418a1.517,1.517,0,0,1,.184-.717,23.846,23.846,0,0,1,3.948-5.283l.527,4.468h-1.809a.57.57,0,0,0,0,1.139h1.939l.268,2.282Zm12.52-23.96-3.813,1.6-2.216-1.107a6.238,6.238,0,0,1,6.029-.5m-7,1.289,1.8.9-3.244,1.363a6.292,6.292,0,0,1,1.444-2.263m-1.782,3.645,9.993-4.208a6.046,6.046,0,0,1,.938.873l-10.787,5.652a5.887,5.887,0,0,1-.144-2.317m.816,3.956a6.019,6.019,0,0,1-.29-.55l11.082-5.808a6.263,6.263,0,0,1-10.793,6.358m.208,15.07-1.044-8.876c.421-.377.861-.734,1.306-1.083l2.491,9.959Zm4.863-.332a1.135,1.135,0,0,1-.8.332h-.132l-.57-2.282h.686a1.155,1.155,0,0,1,.828.36,1.143,1.143,0,0,1-.01,1.59m5.192-10.143a25.375,25.375,0,0,1-3.866,7.256l-.438.58c-.026-.029-.044-.063-.071-.09a2.29,2.29,0,0,0-1.634-.691h-.971l-1.817-7.273,1.035-.733a7.367,7.367,0,0,0,6.776-.51l1.2.791c-.039.142-.1.352-.208.669" transform="translate(-1412.902 -1089.103)" fill="#555370"/><path d="M1421.493,1111.583l1.043,8.876h2.754l-2.492-9.959-.7.56-.035.029Z" transform="translate(-1415.188 -1094.795)" fill="#75b556" stroke="#75b556" stroke-miterlimit="10" stroke-width="0.454"/><path d="M1431.194,1125.191a.73.73,0,0,0-1.4-.4,8.942,8.942,0,0,0,.059,5.138.73.73,0,0,0,.389.446.722.722,0,0,0,.524.035.73.73,0,0,0,.481-.914A7.476,7.476,0,0,1,1431.194,1125.191Zm15.909,4.6a9.127,9.127,0,0,0-.053-5.13.73.73,0,1,0-1.4.423,7.669,7.669,0,0,1,.043,4.31.732.732,0,0,0,.393.859.863.863,0,0,0,.112.042A.732.732,0,0,0,1447.1,1129.786Zm-2.558-2.777a6.085,6.085,0,1,1-6.352-5.805h0A6.091,6.091,0,0,1,1444.545,1127.009Zm-8.334-.356a2.337,2.337,0,0,1,2.152-1.71h0a2.343,2.343,0,0,1,2.293,1.51l2.341-.105a4.626,4.626,0,0,0-9.126.411Zm3.136.59a.882.882,0,0,0-1.532-.556.882.882,0,1,0,1.532.556Zm3.716.563-2.341.106a2.342,2.342,0,0,1-4.446.2l-2.342.1a4.627,4.627,0,0,0,9.128-.41Z" transform="translate(-1417.303 -1097.642)" fill="#555370"/></g></g></svg>