<svg xmlns="http://www.w3.org/2000/svg" xmlns:xlink="http://www.w3.org/1999/xlink" width="45" height="45" viewBox="0 0 45 45"><defs><clipPath id="b"><rect width="45" height="45"/></clipPath></defs><g id="a" clip-path="url(#b)"><g transform="translate(2 1.537)"><path d="M126.232,130.79a15.041,15.041,0,0,1,4.039-2.228c.442-1.792,1.851-7.237,1.851-7.237a2.358,2.358,0,0,1-.884-.344,4.955,4.955,0,0,1-1.982-2.4c-.015,0-.658-.3-1.377-.6h0c-1.093.456-2.546,2.712-2.546,2.712-1.127-2.013-.751-5.444.371-6.6,1.288-1.332,4.9-1.238,5.689-1.4,0-2.209,3.706-3.28,6.507-3.28a27.466,27.466,0,0,1,10.349,1.947,4.467,4.467,0,0,1-1.3.838l2.56,16.419a20.736,20.736,0,0,1,2.891,1.387,20.523,20.523,0,0,1-26.168.8Z" transform="translate(-118.299 -93.647)" fill="#76b740" fill-rule="evenodd"/><path d="M149.509,128.608a20.736,20.736,0,0,1,2.891,1.387,20.523,20.523,0,0,1-26.168.8,15.041,15.041,0,0,1,4.039-2.228c.1-.394.241-.966.407-1.617.086-.34.179-.7.273-1.071.121-.472.245-.957.366-1.425.427-1.66.806-3.124.806-3.124a2.358,2.358,0,0,1-.884-.344,4.955,4.955,0,0,1-1.982-2.4c-.015,0-.658-.3-1.377-.6h0c-1.093.456-2.546,2.712-2.546,2.712-1.127-2.013-.751-5.444.371-6.6,1.288-1.332,4.9-1.238,5.689-1.4,0-2.209,3.706-3.28,6.507-3.28a29.206,29.206,0,0,1,6.467.733" transform="translate(-118.299 -93.647)" fill="none" stroke="#565271" stroke-linejoin="round" stroke-width="1.2"/><path d="M153.321,120.613a20.538,20.538,0,0,1-41.044-1.13" transform="translate(-112.277 -98.551)" fill="none" stroke="#565271" stroke-linejoin="round" stroke-width="1.2"/><path d="M112.289,103.125A20.519,20.519,0,0,1,120.911,86.9" transform="translate(-112.283 -82.697)" fill="none" stroke="#565271" stroke-linejoin="round" stroke-dashoffset="1.8" stroke-width="1.2" stroke-dasharray="1.8 1.8"/><path d="M175.873,87.189a20.517,20.517,0,0,1,8.415,16.013" transform="translate(-143.221 -82.838)" fill="none" stroke="#565271" stroke-linejoin="round" stroke-dashoffset="1.8" stroke-width="1.2" stroke-dasharray="1.8 1.8"/><line x2="6.868" transform="translate(18.518 6.949)" fill="none" stroke-dasharray="2 2" stroke-linejoin="round" stroke-dashoffset="2" stroke-width="1.2" stroke="#565271"/><line x2="9.059" transform="translate(19.497 10.024)" fill="none" stroke="#514d6a" stroke-linejoin="round" stroke-width="1.2"/><line x2="6.829" transform="translate(21.715 2.86)" fill="none" stroke="#514d6a" stroke-linejoin="round" stroke-width="1.2"/><rect width="3.081" height="3.081" transform="translate(12.275 6.944)" fill="#149ade"/><rect width="3.081" height="3.081" stroke-width="1.2" fill="none" stroke="#149ade" stroke-linejoin="round" transform="translate(12.275 6.944)"/><rect width="15.907" height="3.081" transform="translate(12.275 0)" fill="#149ade"/><rect width="15.907" height="3.081" stroke-width="1.2" fill="none" stroke="#149ade" stroke-linejoin="round" transform="translate(12.275 0)"/></g></g></svg>