<svg xmlns="http://www.w3.org/2000/svg" xmlns:xlink="http://www.w3.org/1999/xlink" width="45" height="45" viewBox="0 0 45 45"><defs><clipPath id="b"><rect width="45" height="45"/></clipPath></defs><g id="a" clip-path="url(#b)"><g transform="translate(1.278 1.074)"><path d="M629.66,85.832a21.3,21.3,0,1,1-34.575,17.8" transform="translate(-595.053 -81.156)" fill="none" stroke="#565271" stroke-linejoin="round" stroke-width="1.2"/><path d="M595.025,98.345a21.292,21.292,0,0,1,34.607-16.62" transform="translate(-595.025 -77.049)" fill="none" stroke="#565271" stroke-linejoin="round" stroke-dashoffset="3.6" stroke-width="1.2" stroke-dasharray="1.8 1.8"/><rect width="10.116" height="3.194" transform="translate(13.044 30.42)" fill="#76b740"/><rect width="10.116" height="3.194" stroke-width="1.2" fill="none" stroke="#76b740" stroke-linejoin="round" transform="translate(13.044 30.42)"/><rect width="3.194" height="3.194" transform="translate(26.468 30.42)" fill="#76b740"/><rect width="3.194" height="3.194" stroke-width="1.2" fill="none" stroke="#76b740" stroke-linejoin="round" transform="translate(26.468 30.42)"/><line x2="4.288" transform="translate(25.892 27.436)" fill="none" stroke-dasharray="2 2" stroke-linejoin="round" stroke-dashoffset="2" stroke-width="1.2" stroke="#565271"/><line x1="4.288" transform="translate(12.412 27.436)" fill="none" stroke-dasharray="2 2" stroke-linejoin="round" stroke-dashoffset="2" stroke-width="1.2" stroke="#565271"/><line x2="9.08" transform="translate(16.701 36.487)" fill="none" stroke-dasharray="2 2" stroke-linejoin="round" stroke-dashoffset="2" stroke-width="1.2" stroke="#565271"/><path d="M636.646,127.251a21.281,21.281,0,0,1-26.621,0V103.323h26.621Z" transform="translate(-602.039 -89.334)" fill="none" stroke="#565271" stroke-linejoin="round" stroke-width="1.2"/><path d="M628.64,108.979c-2.384-.074-6.771-4.963-7.223-10.8-.012-.158-.016-.7-.016-1.207a1.752,1.752,0,0,1,.78-1.515h0a12.08,12.08,0,0,1,12.945,0h0a1.751,1.751,0,0,1,.78,1.515c0,.508,0,1.049-.015,1.207-.453,5.853-4.857,10.75-7.237,10.8Z" transform="translate(-607.358 -84.775)" fill="#149ade" fill-rule="evenodd"/><path d="M632.211,106.717c-1.25,1.4-2.575,2.24-3.556,2.263h-.015c-2.384-.074-6.771-4.963-7.223-10.8-.012-.158-.016-.7-.016-1.207a1.752,1.752,0,0,1,.78-1.515h0a12.08,12.08,0,0,1,12.945,0h0a1.751,1.751,0,0,1,.78,1.515c0,.508,0,1.049-.015,1.207a13.379,13.379,0,0,1-.2,1.507" transform="translate(-607.358 -84.775)" fill="none" stroke="#565271" stroke-linejoin="round" stroke-width="1.2"/></g></g></svg>