<svg xmlns="http://www.w3.org/2000/svg" xmlns:xlink="http://www.w3.org/1999/xlink" width="557" height="55.746" viewBox="0 0 587 55.746">
  <defs>
    <filter id="Path_36078" x="0" y="0" width="587" height="55.746" filterUnits="userSpaceOnUse">
      <feOffset dy="4" input="SourceAlpha"/>
      <feGaussianBlur stdDeviation="7.5" result="blur"/>
      <feFlood flood-opacity="0.416"/>
      <feComposite operator="in" in2="blur"/>
      <feComposite in="SourceGraphic"/>
    </filter>
  </defs>
  <g id="Group_4336" data-name="Group 4336" transform="translate(12.228 -79.553)">
    <path id="Path_36076" data-name="Path 36076" d="M552.248,99.917c-1.923,2.495-6.325,8.193-6.352,8.232,0,0-.367-.426-7.176-8.34-2.687,3.365-5.954,7.459-7.17,8.985-1.209-1.526-4.47-5.62-7.152-9-2.92,3.669-4.369,5.488-7.155,9-1.335-1.678-5.429-6.823-7.155-9l-7.152,8.99c-2.747-3.434-4.306-5.376-7.155-8.941-2.92,3.649-4.369,5.459-7.155,8.937-1.212-1.516-4.47-5.581-7.155-8.937-2.882,3.6-4.387,5.483-7.158,8.946-1.212-1.531-4.47-5.645-7.149-9.025-2.684,3.385-5.942,7.5-7.152,9.025-1.592-2-5.432-6.809-7.155-8.971-2.92,3.654-4.369,5.473-7.155,8.966-1.212-1.521-4.47-5.606-7.155-8.966-2.682,3.36-5.939,7.445-7.152,8.966-2.708-3.4-4.339-5.439-7.155-8.966-2.882,3.615-4.381,5.493-7.158,8.971-1.212-1.531-4.467-5.659-7.146-9.059-2.861,3.629-4.4,5.581-7.152,9.059-2.747-3.453-4.306-5.415-7.158-9-6.519,8.2-5.862,7.376-7.155,9l-7.149-9.025c-2.917,3.678-4.369,5.508-7.152,9.025-1.293-1.624-.636-.8-7.155-9-2.682,3.38-5.939,7.474-7.152,9-2.747-3.458-4.3-5.41-7.155-9-6.516,8.2-5.862,7.376-7.152,9-2.628-3.316-4.372-5.517-7.152-9.025-2.682,3.38-5.939,7.5-7.152,9.025-1.215-1.526-4.47-5.645-7.152-9.025-1.807,2.279-5.691,7.185-7.152,9.025-2.747-3.453-4.3-5.415-7.152-9-2.917,3.673-4.369,5.493-7.152,9-1.589-2-5.417-6.794-7.155-8.971-2.682,3.36-5.939,7.445-7.155,8.966-1.212-1.521-4.47-5.606-7.152-8.966-2.682,3.36-5.939,7.445-7.152,8.966-2.711-3.4-4.339-5.439-7.155-8.966-2.682,3.36-5.939,7.445-7.152,8.966-2.747-3.443-4.3-5.39-7.155-8.961-2.682,3.355-5.936,7.44-7.152,8.961-1.212-1.521-4.47-5.6-7.152-8.961l-7.158,8.966c-1.206-1.526-4.464-5.64-7.149-9.025-2.682,3.385-5.939,7.5-7.152,9.025l-7.155-9c-6.617,8.32-5.865,7.376-7.155,9-2.708-3.429-4.33-5.478-7.149-9.054-2.917,3.7-4.369,5.537-7.152,9.054-1.589-2-5.417-6.833-7.155-9.025-2.879,3.629-4.378,5.527-7.155,9.025-1.209-1.526-4.467-5.654-7.149-9.054-2.861,3.624-4.4,5.576-7.152,9.054-2.747-3.453-4.306-5.415-7.155-9-2.917,3.669-4.366,5.488-7.152,9-1.212-1.526-4.47-5.62-7.155-9-2.879,3.625-4.384,5.517-7.152,9-1.188-1.5-4.485-5.659-7.152-9.025-2.667,3.365-5.963,7.528-7.152,9.025-2.708-3.4-4.339-5.459-7.152-9-2.882,3.625-4.387,5.517-7.155,9-1.209-1.526-4.467-5.64-7.152-9.025-2.917,3.678-4.366,5.508-7.152,9.025-2.747-3.463-4.3-5.425-7.152-9.025-2.917,3.678-4.366,5.508-7.152,9.025-2.747-3.453-4.3-5.41-7.152-9l-7.158,9c-1.206-1.526-4.464-5.654-7.149-9.054-2.917,3.7-4.366,5.532-7.152,9.059-2.705-3.424-4.342-5.5-7.152-9.059-2.882,3.649-4.387,5.557-7.152,9.059-2.631-3.336-4.357-5.532-7.161-9.1-8.427,10.037-6.432,7.665-7.176,8.55-.824-1.081.782,1.027-6.241-8.208l-.006-.01,6.244,6.589,6.892-8.071.284-.338.308.338,6.853,7.5L37.7,98.523l.308-.338.308.338,6.844,7.523L52,98.523l.308-.338.308.338,6.841,7.513,6.826-7.557.331-.357.328.357,6.823,7.557L80.6,98.508l.317-.352.32.352,6.832,7.528,6.835-7.528.317-.352.32.352,6.832,7.528,6.826-7.557.328-.357.328.357,6.823,7.557,6.835-7.528.317-.352.32.352,6.832,7.528,6.823-7.557.328-.357.331.357,6.823,7.557,6.823-7.557.328-.357.328.357,6.826,7.557,6.844-7.513.308-.338.308.338,6.841,7.523,6.838-7.538.317-.352.32.352,6.835,7.538,6.844-7.523.308-.338.308.338,6.841,7.513,6.826-7.557.328-.357.328.357,6.826,7.557,6.832-7.528.32-.352.32.352,6.829,7.528,6.817-7.572.34-.377.337.377,6.814,7.567c.221-.249.49-.543.791-.88q.228-.249.475-.528c.167-.181.337-.372.514-.567.884-.978,1.881-2.089,2.78-3.091.134-.147.269-.293.4-.44.218-.24.424-.465.621-.69.158-.171.308-.338.445-.494s.272-.3.391-.435c.063-.064.119-.132.173-.191.033-.039.066-.073.1-.108l.466-.519.066.073.009.01.042.044c.149.161,1.012,1.125,7.038,7.816l1.126-1.247c.352-.391.684-.763.994-1.105.52-.577.979-1.086,1.389-1.546.084-.093.164-.176.242-.264.155-.176.3-.342.445-.494.072-.083.14-.161.206-.23s.1-.108.146-.161c.146-.166.281-.313.406-.455.113-.122.218-.245.32-.352.248-.279.46-.509.636-.7.036-.044.072-.083.1-.117.1-.108.185-.205.263-.293.908-1.008.469-.518.875-.973l.045.049.012.02.012.01,0,0,.057.059c.021.024.048.049.084.093l.143.157c.06.068.131.147.218.245s.191.215.314.347q.09.1.2.22c.1.117.221.245.352.391s.272.3.427.474c.051.059.1.117.158.176.111.122.227.254.349.386.185.2.382.426.6.665.072.073.146.157.221.245.152.166.308.342.475.528.084.093.167.186.254.284.173.186.355.391.543.6.287.313.588.651.911,1.013l1.027,1.14c.242.269.5.548.755.836l1.126-1.247c.352-.391.684-.763.994-1.105.517-.577.976-1.086,1.389-1.546.081-.093.161-.176.239-.264.158-.176.3-.342.445-.494.072-.083.14-.161.206-.23s.1-.108.146-.161c.146-.166.281-.313.406-.455l.319-.352c.251-.279.46-.509.639-.7.036-.044.069-.083.1-.117.1-.108.188-.205.266-.293.908-1.008.469-.518.875-.973.5.558.149.166,7.152,7.944,1.914-2.123,3.285-3.649,4.273-4.745.116-.127.227-.249.331-.372l.155-.166c.1-.112.2-.225.29-.323.137-.157.263-.293.382-.421q.233-.264.421-.47c.146-.161.272-.3.382-.426.472-.528.627-.695.744-.827l.033-.034.1-.117.039-.044c.5.558.149.166,7.155,7.944,1.559-1.722,3.35-3.7,4.808-5.317.233-.254.454-.5.666-.734.14-.152.275-.3.406-.45.2-.22.382-.421.552-.611.281-.308.526-.582.72-.792l.078.083c.045.054.087.1.137.152s.113.122.2.22c.49.548,1.81,2.01,6.734,7.454q.784-.858,1.454-1.6c.337-.367.651-.709.95-1.042l.567-.626c.179-.2.352-.386.52-.567s.322-.357.472-.523c.2-.225.391-.43.564-.626.266-.289.5-.548.714-.783.14-.152.269-.3.388-.43,1.5-1.648,1.395-1.536,1.442-1.585l.081-.088.125.137c.179.2.4.445.66.724s.549.611.863.954c.158.176.322.352.49.538l.251.279c.173.191.346.382.523.577,1.586,1.741,3.344,3.678,4.24,4.666l.535-.587c.087-.1.173-.191.257-.279,1.257-1.389,2.267-2.5,3.076-3.395.063-.064.122-.132.179-.2.119-.132.233-.254.34-.377.087-.093.17-.186.251-.274l.063-.073c.051-.054.1-.108.146-.157.579-.641,1.015-1.12,1.341-1.477.048-.059.1-.112.137-.157l.084-.093c.048-.049.09-.1.128-.137.063-.073.116-.132.164-.181l.09-.1c.045-.049.081-.093.114-.127s.06-.068.084-.093c.06-.068.1-.108.116-.127h0l0,0h0l0,0,.006-.01v0h.006l0,0,.021-.02.125.137c.179.2.4.445.66.724s.549.611.863.954.651.719,1,1.1c.173.2.349.382.529.577s.358.4.538.6.358.4.538.592.355.391.529.582c.346.386.684.753.994,1.1.081.088.155.176.233.259.3.328.576.636.815.9.119.137.23.254.328.362,4.04-4.466,5.65-6.251,6.366-7.044l.209-.23.155-.171.116-.127.045-.049.078-.088.182-.2.161.176c.066.068.143.157.23.254.23.254.529.582.875.968.078.078.155.166.239.259l.642.714c.137.147.275.3.415.455.418.47.86.954,1.3,1.438l.293.318c.048.054.1.108.143.157.143.166.287.323.427.474s.278.308.412.455c.63.7,1.194,1.326,1.6,1.771.173.2.316.352.424.47,6.083-6.73,6.566-7.264,7.152-7.909.14.156.451.5.869.959.188.21.4.445.627.695.042.049.084.093.125.137.084.093.167.191.254.284s.176.2.266.293q.2.22.412.455c.1.1.188.205.284.308,1.714,1.9,3.67,4.065,4.318,4.779,5.235-5.767,6.51-7.176,6.877-7.577a1.123,1.123,0,0,0,.084-.093l.09-.1a1.336,1.336,0,0,0,.1-.108l.018.015,0,0h0l0,0,0,0h0l0,.01,0,0,.009,0,.012.015.051.054.045.049,0,0,.048.054h0l.066.073.057.064.066.073.048.054c.033.039.069.073.107.113.606.67,1.863,2.054,4.422,4.877l.436.484c.149.161.3.333.463.514q.121.125.242.264c.328.357.672.739,1.033,1.135,4.04-4.466,5.65-6.251,6.369-7.044l.209-.23.155-.171.116-.127.045-.049.078-.088.182-.2.078.083c.045.054.087.1.137.152s.113.122.2.22c.493.548,1.816,2.01,6.74,7.454.4-.44.968-1.056,1.618-1.776.242-.269.5-.543.759-.832.087-.1.176-.191.263-.289.364-.4.738-.812,1.108-1.213.245-.274.49-.543.732-.8s.475-.523.7-.768c.113-.127.224-.245.331-.367.7-.768,1.3-1.419,1.642-1.8,1.242,1.365,2.111,2.319,4.139,4.549l.2.22c.137.147.281.308.427.47.075.083.149.166.227.249.308.338.639.7.994,1.091.119.132.242.264.367.406.251.269.514.558.788.861.9-1,1.681-1.864,2.359-2.617.421-.47.806-.9,1.153-1.282.275-.308.529-.592.761-.846.117-.132.227-.254.335-.372s.206-.23.3-.333l.537-.6.227-.249c.143-.161.269-.3.379-.426.448-.5.666-.739.8-.89l.125-.137.033-.034.1-.117.039-.044c.615.685-1.308-1.448,7.155,7.944,1.771-1.966,6.537-7.259,7.152-7.944.069.078.179.2.322.362.051.054.1.112.158.171l.087.1q.09.1.188.205l.1.117c.069.073.14.157.215.24q.282.315.609.675c.227.249.466.518.714.792.167.186.337.377.508.563s.346.381.52.577c.087.093.176.191.263.289.1.117.2.225.3.333.2.225.394.44.585.651l2.586,2.871,7.155-7.944c.281.313.293.328,1.5,1.658.069.078.137.161.212.24.3.333.66.729,1.1,1.218q.246.279.529.587c.125.142.257.289.391.435s.278.313.427.474.3.338.46.509l.275.308c.654.729,1.4,1.565,2.267,2.519.078-.083.182-.2.308-.342l.164-.176.382-.426.107-.117c.075-.078.149-.166.227-.254a1.282,1.282,0,0,0,.119-.127c.081-.088.161-.176.248-.274.042-.044.084-.093.125-.142.131-.142.263-.289.4-.44.093-.1.185-.2.278-.3.14-.152.284-.308.427-.474.1-.1.194-.21.293-.318s.194-.215.293-.323c1.669-1.844,3.386-3.727,3.78-4.163.424.465-.006,0,7.149,7.875,7-7.8,6.695-7.464,7.158-7.978.63.7-1.293-1.443,7.155,7.973.218-.245.43-.479.633-.7s.4-.445.591-.66c.1-.108.191-.21.284-.313.182-.21.361-.406.531-.592.257-.289.5-.563.732-.817.152-.176.3-.338.442-.494.212-.24.412-.465.6-.67.251-.284.481-.538.693-.773.1-.117.2-.23.3-.338,2.06-2.3,2.034-2.265,2.344-2.612.116.127.185.205.334.367.072.083.167.186.3.333.642.714,2.165,2.411,6.528,7.278,6.056-6.7,6.623-7.327,7.152-7.909.7.773,2.042,2.255,3.553,3.933.337.367.681.748,1.027,1.135l.523.577c.7.773,1.394,1.551,2.051,2.27.191-.21.373-.411.552-.611s.349-.391.52-.577c.5-.553.968-1.066,1.385-1.531.069-.078.14-.157.206-.23.137-.147.266-.293.394-.435.188-.205.37-.406.54-.6s.334-.372.49-.538c.051-.064.1-.117.149-.171.1-.108.194-.21.284-.313s.179-.2.266-.294c.125-.142.245-.274.358-.4.075-.078.146-.161.215-.235l.2-.22c1.042-1.154,1.326-1.463,1.6-1.761.4.44,2.162,2.387,3.858,4.27.1.1.194.21.293.318.048.049.1.1.143.157.1.1.191.215.284.318s.188.205.281.308.185.2.275.3c.224.245.439.484.642.714.164.181.32.352.463.514a1.294,1.294,0,0,1,.108.117l.2.215.182.21.424.465c.17-.191.334-.367.5-.548.075-.083.146-.161.218-.245s.17-.191.254-.284c.155-.166.3-.338.451-.5s.281-.308.415-.465q.766-.844,1.392-1.541.1-.11.2-.22c.747-.827,1.344-1.487,1.822-2.02.063-.073.122-.137.179-.2.508-.563.866-.964,1.12-1.242.078-.088.143-.157.2-.225.078-.088.14-.161.191-.21l.066-.073.045-.049.024-.029h0l0,0h0l0,0,.009-.01h0l.006-.01h0l0-.01.009-.01.054-.059c.394.474,1.087,1.306,1.9,2.284l.761.915c.523.631,1.072,1.286,1.607,1.927.714.861,1.4,1.687,1.983,2.382.358.43.675.812.926,1.11l.024-.024.027-.025c.03-.034.072-.083.125-.137s.119-.132.194-.205l.033-.034c.054-.054.111-.117.173-.191l.078-.078c.078-.088.161-.176.251-.269.182-.2.388-.421.609-.651.075-.083.149-.166.227-.245l.116-.127c.078-.073.155-.157.233-.245.484-.518,1.012-1.081,1.544-1.648.113-.117.224-.24.337-.357.337-.367.669-.719.985-1.057.113-.117.227-.24.335-.357.042-.044.084-.088.125-.137.149-.152.293-.308.43-.455.048-.054.1-.1.143-.161C552.018,100.161,552.137,100.034,552.248,99.917Z" transform="translate(0 0)" fill="#149ade"/>
    <path id="Path_36077" data-name="Path 36077" d="M134.545,98.075h0Z" transform="translate(246.806 -0.008)" fill="#149ade"/>
    <g transform="matrix(1, 0, 0, 1, -12.23, 79.55)" filter="url(#Path_36078)">
      <path id="Path_36078-2" data-name="Path 36078" d="M552.272,99.868l-.03.039-.009.01c-1.923,2.495-6.324,8.193-6.351,8.232,0,0-.367-.426-7.175-8.34-2.687,3.365-5.954,7.459-7.169,8.985-1.209-1.526-4.47-5.62-7.151-9-2.92,3.669-4.369,5.488-7.155,9-1.335-1.678-5.429-6.823-7.154-9l-7.152,8.99c-2.747-3.434-4.306-5.376-7.155-8.941-2.92,3.649-4.369,5.459-7.155,8.937-1.212-1.516-4.47-5.581-7.155-8.937-2.882,3.6-4.387,5.483-7.158,8.946-1.212-1.531-4.47-5.645-7.149-9.025-2.684,3.385-5.942,7.5-7.152,9.025-1.592-2-5.432-6.809-7.155-8.971-2.92,3.654-4.369,5.473-7.155,8.966-1.212-1.521-4.47-5.606-7.155-8.966-2.681,3.36-5.939,7.445-7.152,8.966-2.708-3.4-4.339-5.439-7.155-8.966-2.881,3.615-4.38,5.493-7.158,8.971-1.212-1.531-4.467-5.659-7.145-9.059-2.861,3.629-4.4,5.581-7.152,9.059-2.747-3.453-4.306-5.415-7.157-9-6.519,8.2-5.862,7.376-7.155,9l-7.149-9.025c-2.917,3.678-4.369,5.508-7.152,9.025-1.293-1.624-.636-.8-7.155-9-2.681,3.38-5.939,7.474-7.152,9-2.747-3.458-4.3-5.41-7.154-9-6.516,8.2-5.862,7.376-7.152,9-2.628-3.316-4.372-5.517-7.152-9.025-2.681,3.38-5.939,7.5-7.152,9.025-1.215-1.526-4.47-5.645-7.152-9.025-1.807,2.279-5.691,7.185-7.152,9.025-2.747-3.453-4.3-5.415-7.152-9-2.917,3.673-4.369,5.493-7.152,9-1.589-2-5.417-6.794-7.155-8.971-2.681,3.36-5.939,7.445-7.155,8.966-1.212-1.521-4.47-5.606-7.152-8.966-2.681,3.36-5.939,7.445-7.152,8.966-2.711-3.4-4.339-5.439-7.155-8.966-2.681,3.36-5.939,7.445-7.152,8.966-2.747-3.443-4.3-5.39-7.155-8.961-2.681,3.355-5.936,7.44-7.152,8.961-1.212-1.521-4.47-5.6-7.152-8.961l-7.158,8.966c-1.206-1.526-4.464-5.64-7.149-9.025-2.681,3.385-5.939,7.5-7.151,9.025l-7.155-9c-6.617,8.32-5.865,7.376-7.155,9-2.708-3.429-4.33-5.478-7.149-9.054-2.917,3.7-4.369,5.537-7.151,9.054-1.589-2-5.417-6.833-7.155-9.025-2.878,3.629-4.377,5.527-7.154,9.025-1.209-1.526-4.467-5.654-7.149-9.054-2.861,3.624-4.4,5.576-7.152,9.054-2.747-3.453-4.306-5.415-7.155-9-2.917,3.669-4.366,5.488-7.152,9-1.212-1.526-4.47-5.62-7.155-9-2.879,3.625-4.383,5.517-7.152,9-1.188-1.5-4.485-5.659-7.152-9.025-2.666,3.365-5.963,7.528-7.152,9.025-2.708-3.4-4.339-5.459-7.152-9-2.882,3.625-4.386,5.517-7.155,9-1.209-1.526-4.467-5.64-7.152-9.025-2.917,3.678-4.366,5.508-7.152,9.025-2.747-3.463-4.3-5.425-7.152-9.025-2.917,3.678-4.366,5.508-7.152,9.025-2.747-3.453-4.3-5.41-7.152-9l-7.158,9c-1.206-1.526-4.464-5.654-7.149-9.054-2.917,3.7-4.366,5.532-7.152,9.059-2.705-3.424-4.342-5.5-7.152-9.059-2.882,3.649-4.386,5.557-7.152,9.059-2.631-3.336-4.357-5.532-7.16-9.1-8.427,10.037-6.432,7.665-7.175,8.55-.824-1.081.782,1.027-6.241-8.208l-.006-.01,6.244,6.589,6.892-8.071.284-.338.308.338,6.853,7.5L37.7,98.523l.308-.338.308.338,6.844,7.523L52,98.523l.308-.338.308.338,6.841,7.513,6.826-7.557.331-.357.328.357,6.823,7.557L80.6,98.508l.317-.352.319.352,6.832,7.528,6.835-7.528.317-.352.319.352,6.832,7.528,6.826-7.557.328-.357.328.357,6.823,7.557,6.835-7.528.316-.352.32.352,6.832,7.528,6.823-7.557.328-.357.331.357,6.823,7.557,6.823-7.557.328-.357.328.357,6.826,7.557,6.844-7.513.308-.338.308.338,6.841,7.523,6.838-7.538.316-.352.32.352,6.835,7.538,6.844-7.523.308-.338.308.338,6.841,7.513,6.826-7.557.328-.357.328.357,6.826,7.557,6.832-7.528.319-.352.32.352,6.829,7.528,6.817-7.572.34-.377.337.377,6.814,7.567c.221-.249.49-.543.791-.88q.228-.249.475-.528c.167-.181.337-.372.514-.567.884-.978,1.881-2.089,2.78-3.091.134-.147.269-.293.4-.44.218-.24.424-.465.621-.69.158-.171.308-.338.445-.494s.272-.3.391-.435c.063-.064.119-.132.173-.191.033-.039.066-.073.1-.108l.466-.519.066.073.009.01.042.044c.149.161,1.012,1.125,7.038,7.816l1.126-1.247c.352-.391.684-.763.994-1.105.52-.577.979-1.086,1.388-1.546.084-.093.164-.176.242-.264.155-.176.3-.342.445-.494.072-.083.14-.161.206-.23s.1-.108.146-.161c.146-.166.281-.313.406-.455.113-.122.218-.245.319-.352.248-.279.46-.509.636-.7.036-.044.072-.083.1-.117.1-.108.185-.205.263-.293.908-1.008.469-.518.875-.973l.045.049.012.02.012.01,0,0,.057.059c.021.024.048.049.084.093l.143.157c.06.068.131.147.218.245s.191.215.314.347q.09.1.2.22c.1.117.221.245.352.391s.272.3.427.474c.051.059.1.117.158.176.111.122.227.254.349.386.185.2.382.426.6.665.072.073.146.157.221.245.152.166.308.342.475.528.084.093.167.186.254.284.173.186.355.391.543.6.287.313.588.651.911,1.013l1.027,1.14c.242.269.5.548.755.836l1.126-1.247c.352-.391.684-.763.994-1.105.517-.577.976-1.086,1.388-1.546.081-.093.161-.176.239-.264.158-.176.3-.342.445-.494.072-.083.14-.161.206-.23s.1-.108.146-.161c.146-.166.281-.313.406-.455l.319-.352c.251-.279.46-.509.639-.7.036-.044.069-.083.1-.117.1-.108.188-.205.266-.293.908-1.008.469-.518.875-.973.5.558.149.166,7.152,7.944,1.914-2.123,3.285-3.649,4.273-4.745.116-.127.227-.249.331-.372l.155-.166c.1-.112.2-.225.29-.323.137-.157.263-.293.382-.421q.233-.264.421-.47c.146-.161.272-.3.382-.426.472-.528.627-.695.744-.827l.033-.034.1-.117.039-.044c.5.558.149.166,7.155,7.944,1.559-1.722,3.35-3.7,4.808-5.317.233-.254.454-.5.666-.734.14-.152.275-.3.406-.45.2-.22.382-.421.552-.611.281-.308.526-.582.72-.792l.078.083c.045.054.087.1.137.152s.113.122.2.22c.49.548,1.81,2.01,6.734,7.454q.784-.858,1.454-1.6c.337-.367.651-.709.95-1.042l.567-.626c.179-.2.352-.386.52-.567s.323-.357.472-.523c.2-.225.391-.43.564-.626.266-.289.5-.548.714-.783.14-.152.269-.3.388-.43,1.5-1.648,1.394-1.536,1.442-1.585l.081-.088.125.137c.179.2.4.445.66.724s.549.611.863.954c.158.176.322.352.49.538l.251.279c.173.191.346.382.523.577,1.586,1.741,3.344,3.678,4.24,4.666l.535-.587c.087-.1.173-.191.257-.279,1.257-1.389,2.266-2.5,3.076-3.395.063-.064.122-.132.179-.2.119-.132.233-.254.34-.377.087-.093.17-.186.251-.274l.063-.073c.051-.054.1-.108.146-.157.579-.641,1.015-1.12,1.341-1.477.048-.059.1-.112.137-.157l.084-.093c.048-.049.09-.1.128-.137.063-.073.117-.132.164-.181l.09-.1c.045-.049.081-.093.113-.127s.06-.068.084-.093c.06-.068.1-.108.116-.127h0l0,0h0l0,0,.006-.01v0h.006l0,0,.021-.02.125.137c.179.2.4.445.66.724s.549.611.863.954.651.719,1,1.1c.173.2.349.382.529.577s.358.4.537.6.358.4.538.592.355.391.529.582c.346.386.684.753.994,1.1.081.088.155.176.233.259.3.328.576.636.815.9.119.137.23.254.328.362,4.04-4.466,5.65-6.251,6.366-7.044l.209-.23.155-.171.116-.127.045-.049.078-.088.182-.2.161.176c.066.068.143.157.23.254.23.254.529.582.875.968.078.078.155.166.239.259l.642.714c.137.147.275.3.415.455.418.47.86.954,1.3,1.438l.293.318c.048.054.1.108.143.157.143.166.287.323.427.474s.278.308.412.455c.63.7,1.194,1.326,1.6,1.771.173.2.316.352.424.47,6.083-6.73,6.566-7.264,7.152-7.909.14.156.451.5.869.959.188.21.4.445.627.695.042.049.084.093.125.137.084.093.167.191.254.284s.176.2.266.293q.2.22.412.455c.1.1.188.205.284.308,1.714,1.9,3.67,4.065,4.318,4.779,5.235-5.767,6.51-7.176,6.877-7.577a1.13,1.13,0,0,0,.084-.093l.09-.1a1.31,1.31,0,0,0,.1-.108l.018.015,0,0h0l0,0,0,0h0l0,.01,0,0,.009,0,.012.015.051.054.045.049,0,0,.048.054h0l.066.073.057.064.066.073.048.054c.033.039.069.073.107.113.606.67,1.863,2.054,4.422,4.877l.436.484c.149.161.3.333.463.514q.121.125.242.264c.328.357.672.739,1.033,1.135,4.04-4.466,5.65-6.251,6.369-7.044l.209-.23.155-.171.116-.127.045-.049.078-.088.182-.2.078.083c.045.054.087.1.137.152s.113.122.2.22c.493.548,1.815,2.01,6.74,7.454.4-.44.967-1.056,1.618-1.776.242-.269.5-.543.759-.832.087-.1.176-.191.263-.289.364-.4.737-.812,1.108-1.213.245-.274.49-.543.732-.8s.475-.523.7-.768c.113-.127.224-.245.331-.367.7-.768,1.3-1.419,1.642-1.8,1.242,1.365,2.111,2.319,4.139,4.549l.2.22c.137.147.281.308.427.47.075.083.149.166.227.249.308.338.639.7.994,1.091.119.132.242.264.367.406.251.269.514.558.788.861.9-1,1.681-1.864,2.359-2.617.421-.47.806-.9,1.153-1.282.275-.308.529-.592.761-.846.116-.132.227-.254.334-.372s.206-.23.3-.333l.537-.6.227-.249c.143-.161.269-.3.379-.426.448-.5.666-.739.8-.89l.125-.137.033-.034.1-.117.039-.044c.615.685-1.308-1.448,7.155,7.944,1.771-1.966,6.536-7.259,7.152-7.944.069.078.179.2.323.362.051.054.1.112.158.171l.087.1q.09.1.188.205l.1.117c.069.073.14.157.215.24q.282.315.609.675c.227.249.466.518.714.792.167.186.337.377.508.563s.346.381.52.577c.087.093.176.191.263.289.1.117.2.225.3.333.2.225.394.44.585.651l2.586,2.871,7.155-7.944c.281.313.293.328,1.5,1.658.069.078.137.161.212.24.3.333.66.729,1.1,1.218q.246.279.529.587c.125.142.257.289.391.435s.278.313.427.474.3.338.46.509l.275.308c.654.729,1.4,1.565,2.266,2.519.078-.083.182-.2.308-.342l.164-.176.382-.426.107-.117c.075-.078.149-.166.227-.254a1.293,1.293,0,0,0,.12-.127c.081-.088.161-.176.248-.274.042-.044.084-.093.125-.142.131-.142.263-.289.4-.44.093-.1.185-.2.278-.3.14-.152.284-.308.427-.474.1-.1.194-.21.293-.318s.194-.215.293-.323c1.669-1.844,3.386-3.727,3.78-4.163.424.465-.006,0,7.149,7.875,7-7.8,6.695-7.464,7.158-7.978.63.7-1.293-1.443,7.155,7.973.218-.245.43-.479.633-.7s.4-.445.591-.66c.1-.108.191-.21.284-.313.182-.21.361-.406.532-.592.257-.289.5-.563.732-.817.152-.176.3-.338.442-.494.212-.24.412-.465.6-.67.251-.284.481-.538.693-.773.1-.117.2-.23.3-.338,2.06-2.3,2.033-2.265,2.344-2.612.117.127.185.205.335.367.072.083.167.186.3.333.642.714,2.165,2.411,6.527,7.278,6.056-6.7,6.623-7.327,7.152-7.909.7.773,2.042,2.255,3.553,3.933.337.367.681.748,1.027,1.135l.523.577c.7.768,1.394,1.536,2.051,2.265.191-.205.373-.411.552-.607s.349-.391.52-.577c.5-.563.967-1.071,1.385-1.531.069-.078.14-.157.206-.23l.394-.435c.188-.205.37-.406.54-.6s.334-.372.49-.538c.051-.064.1-.117.149-.171.1-.108.194-.21.284-.313s.179-.2.266-.294c.125-.142.245-.274.358-.4.075-.078.146-.161.215-.235l.2-.22c1.042-1.154,1.326-1.463,1.6-1.761.4.44,2.162,2.387,3.858,4.27.1.1.194.21.293.318.048.049.1.1.143.157.1.1.191.215.284.318s.188.205.281.308.185.2.275.3c.224.245.439.484.642.714.164.181.32.352.463.514a1.3,1.3,0,0,1,.108.117l.2.215.182.21.424.465c.17-.191.334-.367.5-.548.075-.083.146-.161.218-.245s.17-.191.254-.284c.155-.166.3-.338.451-.5s.281-.308.415-.465q.766-.844,1.391-1.541.1-.11.2-.22c.747-.827,1.344-1.487,1.821-2.02.063-.073.122-.137.179-.2.508-.563.866-.964,1.12-1.242.078-.088.143-.157.2-.225.078-.088.14-.161.191-.21l.066-.073.045-.049.024-.029h0l0,0h0l0,0,.009-.01h0v0l.006,0h0v-.01h0l.009-.01.054-.059c.394.474,1.087,1.306,1.9,2.284l.761.915c.523.631,1.072,1.286,1.606,1.927.714.861,1.4,1.687,1.983,2.382.358.43.675.812.926,1.11l.024-.024.027-.025c.03-.034.072-.083.125-.137s.119-.132.194-.205l.033-.034c.054-.054.111-.117.173-.191l.078-.078c.078-.088.161-.176.251-.269.182-.2.388-.421.609-.651.075-.083.149-.166.227-.245l.116-.127c.078-.073.155-.157.233-.245.484-.518,1.012-1.081,1.544-1.648.113-.117.224-.24.338-.357.337-.367.669-.719.985-1.057.113-.117.227-.24.335-.357.042-.044.084-.088.125-.137.149-.157.292-.313.43-.455.048-.054.1-.1.143-.161C552.015,100.137,552.15,99.995,552.272,99.868Z" transform="translate(12.23 -79.55)" fill="#149ade"/>
    </g>
  </g>
</svg>
