<svg xmlns="http://www.w3.org/2000/svg" xmlns:xlink="http://www.w3.org/1999/xlink" width="40" height="40" viewBox="0 0 40 40"><defs><clipPath id="b"><rect width="40" height="40"/></clipPath></defs><g id="a" clip-path="url(#b)"><g transform="translate(-1216.211 -714.207)"><path d="M1253.475,729.125l3.621-2.586,7.889,4.785-1.164,4.138-10.772-6.577" transform="translate(-12.307 -3.888)" fill="#149ade" stroke="#707070" stroke-width="0.3"/><path d="M1230.832,741.6a3.447,3.447,0,1,0,3.448,3.447,3.452,3.452,0,0,0-3.448-3.447m0,5.91a2.462,2.462,0,1,1,2.462-2.463,2.466,2.466,0,0,1-2.462,2.463" transform="translate(-3.502 -9.055)" fill="#555370" stroke="#565271" stroke-width="0.3"/><path d="M1231.861,744.6a1.477,1.477,0,1,0,1.477,1.478,1.48,1.48,0,0,0-1.477-1.478m0,1.97a.492.492,0,1,1,.493-.492.492.492,0,0,1-.493.492" transform="translate(-4.53 -10.084)" fill="#555370" stroke="#565271" stroke-width="0.3"/><rect width="2.232" height="0.985" transform="translate(1220.608 735.171)" fill="#555370" stroke="#565271" stroke-width="0.3"/><path d="M1254.774,732.055l-.816-.472,1.161-4.636L1246.555,722l-4,3-2.5-1.445a2.464,2.464,0,0,0-3.365.9l-1.17,2.028-5.714-8.095.131-.489h0a2.134,2.134,0,1,0-4.123-1.1l0,.012-2.663,9.934a2.454,2.454,0,0,0-.691,1.707v3.114h12.216V733.2h-1.037v.985h1.89v.986h-1.89v.985h2.875V733.2h-.853v-2.626h-8.274v-2.13a2.423,2.423,0,0,0-.094-.671l2.185-8.151,5.5,7.8-.5.872,2.365,1.366a3.119,3.119,0,0,0,5.335,3.079l4.276,2.471a3.118,3.118,0,0,0,5.334,3.078l1.684.974,2.217-3.84a2.465,2.465,0,0,0-.9-3.363m-28.384-1.481h-2.955v-2.13a1.477,1.477,0,1,1,2.955,0Zm.179-3.95a2.453,2.453,0,0,0-2.224-.575l1.946-7.266a2.13,2.13,0,0,0,2.221.592Zm2.409-8.984h0a1.149,1.149,0,0,1-2.1.277,1.133,1.133,0,0,1-.116-.865v-.007a1.15,1.15,0,0,1,2.221.6m25.005,9.788-.912,3.645-2.647-1.529,1.806-3.128Zm-7.358-4.249,4.751,2.744-1.807,3.127-6.092-3.517Zm-5.032,8.658a2.136,2.136,0,1,1,.213-1.619,2.136,2.136,0,0,1-.213,1.619m9.61,5.55a2.134,2.134,0,1,1-1.844-3.2,2.112,2.112,0,0,1,1.063.286,2.135,2.135,0,0,1,.781,2.915m3.62-2.461-1.724,2.986-.83-.48a3.12,3.12,0,0,0-5.335-3.08l-4.276-2.468a3.119,3.119,0,0,0-5.335-3.08l-1.512-.874,1.724-2.986a1.478,1.478,0,0,1,2.019-.54l14.729,8.5a1.478,1.478,0,0,1,.541,2.018" transform="translate(-1.809)" fill="#555370" stroke="#565271" stroke-width="0.3"/><rect width="1.106" height="1.106" transform="translate(1234.466 718.709)" fill="#75b556" stroke="#75b556" stroke-miterlimit="10" stroke-width="0.3"/><rect width="1.105" height="1.106" transform="translate(1232.254 718.709)" fill="#555370" stroke="#565271" stroke-width="0.3"/><rect width="1.105" height="1.106" transform="translate(1236.678 718.709)" fill="#555370" stroke="#565271" stroke-width="0.3"/><rect width="1.035" height="1.036" transform="translate(1236.651 716.963)" fill="#555370" stroke="#565271" stroke-width="0.3"/><rect width="1.036" height="1.036" transform="translate(1238.722 716.963)" fill="#75b556" stroke="#75b556" stroke-miterlimit="10" stroke-width="0.3"/><rect width="1.036" height="1.036" transform="translate(1234.579 716.963)" fill="#75b556" stroke="#75b556" stroke-miterlimit="10" stroke-width="0.3"/><rect width="0.984" height="0.985" transform="translate(1222.612 728.149)" fill="#555370" stroke="#565271" stroke-width="0.3"/><rect width="0.985" height="0.985" transform="translate(1245.403 731.102) rotate(-60.07)" fill="#555370" stroke="#565271" stroke-width="0.3"/><rect width="0.985" height="2.233" transform="matrix(0.5, -0.866, 0.866, 0.5, 1242.616, 729.492)" fill="#555370" stroke="#565271" stroke-width="0.3"/><rect width="0.985" height="0.986" transform="translate(1237.262 730.951) rotate(-59.966)" fill="#555370" stroke="#565271" stroke-width="0.3"/><rect width="0.986" height="0.985" transform="translate(1246.873 736.5) rotate(-60.011)" fill="#555370" stroke="#565271" stroke-width="0.3"/><path d="M1247.747,761.919l-9.211-.1a1.312,1.312,0,0,0-1.326,1.3l0,.186a1.313,1.313,0,0,0,1.3,1.326l9.211.1a1.313,1.313,0,0,0,1.326-1.3l0-.186a1.313,1.313,0,0,0-1.3-1.326Zm-.021,1.861-9.211-.1a.365.365,0,0,1-.359-.367v-.186a.365.365,0,0,1,.368-.36l9.211.1a.365.365,0,0,1,.36.368l0,.186a.365.365,0,0,1-.368.36Zm0,0" transform="translate(-6.872 -15.992)" fill="#75b556" stroke="#75b556" stroke-miterlimit="10" stroke-width="0.3"/><path d="M1251.317,757.551l-1.561,2.637a.812.812,0,0,0-.009.81l1.5,2.67a.813.813,0,0,0,.7.413l1.45.016a.474.474,0,0,0,.011-.947l-1.371-.015-1.426-2.532,1.481-2.5,6.02.066a.811.811,0,0,0,.69-1.251,6.834,6.834,0,0,0-11.234-.333,1.209,1.209,0,0,1-.98.5l-13.386-.147a1.206,1.206,0,0,1-.969-.52,6.827,6.827,0,0,0-3.967-2.709.474.474,0,1,0-.224.92,5.882,5.882,0,0,1,3.415,2.334,2.158,2.158,0,0,0,1.734.922l13.386.146a2.16,2.16,0,0,0,1.753-.884,5.885,5.885,0,0,1,9.529.072l-5.837-.064a.811.811,0,0,0-.706.4Zm0,0" transform="translate(-3.604 -13.204)" fill="#555370" stroke="#565271" stroke-width="0.3"/><path d="M1217.391,756.429a.811.811,0,0,0,.662,1.266l6.02.066,1.425,2.532-1.48,2.5-6.021-.066a.811.811,0,0,0-.69,1.251,6.821,6.821,0,0,0,11.228.328,1.206,1.206,0,0,1,.976-.493l13.4.147a1.2,1.2,0,0,1,.965.514,6.825,6.825,0,0,0,11.232-.083.811.811,0,0,0-.662-1.265l-2.438-.027a.474.474,0,0,0-.01.948l2.176.024a5.876,5.876,0,0,1-9.523-.143,2.154,2.154,0,0,0-1.73-.916l-13.4-.147a2.153,2.153,0,0,0-1.748.878,5.873,5.873,0,0,1-9.525-.065l5.837.064a.813.813,0,0,0,.706-.4l1.561-2.637a.812.812,0,0,0,.009-.81l-1.5-2.671a.812.812,0,0,0-.7-.413l-5.837-.064a5.866,5.866,0,0,1,4.067-2.329.474.474,0,0,0-.1-.942,6.818,6.818,0,0,0-4.9,2.95Zm0,0" transform="translate(0 -13.13)" fill="#555370" stroke="#565271" stroke-width="0.3"/></g></g></svg>