<?xml version="1.0" encoding="utf-8"?>
<!-- Generator: Adobe Illustrator 19.2.0, SVG Export Plug-In . SVG Version: 6.00 Build 0)  -->
<svg version="1.1" id="Layer_1" xmlns="http://www.w3.org/2000/svg" xmlns:xlink="http://www.w3.org/1999/xlink" x="0px" y="0px"
	 width="30px" height="30px" viewBox="0 0 30 30" style="enable-background:new 0 0 30 30;" xml:space="preserve">
<style type="text/css">
	.st0{fill:#FFFFFF;}
</style>
<path class="st0" d="M26.9,5.1c0,2.2-1.8,4-4,4s-4-1.8-4-4c0-2.2,1.8-4,4-4S26.9,2.9,26.9,5.1z"/>
<path class="st0" d="M22.9,10C20.2,10,18,7.8,18,5.1c0-2.7,2.2-4.9,4.9-4.9s4.9,2.2,4.9,4.9C27.8,7.8,25.6,10,22.9,10z M22.9,2.1
	c-1.7,0-3,1.4-3,3c0,1.7,1.4,3,3,3c1.7,0,3-1.4,3-3C25.9,3.4,24.6,2.1,22.9,2.1z"/>
<path class="st0" d="M26.9,24.6c0,2.2-1.8,4-4,4s-4-1.8-4-4c0-2.2,1.8-4,4-4S26.9,22.4,26.9,24.6z"/>
<path class="st0" d="M22.9,29.5c-2.7,0-4.9-2.2-4.9-4.9c0-2.7,2.2-4.9,4.9-4.9s4.9,2.2,4.9,4.9C27.8,27.3,25.6,29.5,22.9,29.5z
	 M22.9,21.5c-1.7,0-3,1.4-3,3c0,1.7,1.4,3,3,3c1.7,0,3-1.4,3-3C25.9,22.9,24.6,21.5,22.9,21.5z"/>
<path class="st0" d="M9.8,14.9c0,2.2-1.8,4-4,4c-2.2,0-4-1.8-4-4s1.8-4,4-4C8.1,10.9,9.8,12.7,9.8,14.9z"/>
<path class="st0" d="M5.9,19.7c-2.7,0-4.9-2.2-4.9-4.9S3.2,10,5.9,10c2.7,0,4.9,2.2,4.9,4.9S8.6,19.7,5.9,19.7z M5.9,11.8
	c-1.7,0-3,1.4-3,3s1.4,3,3,3c1.7,0,3-1.4,3-3S7.5,11.8,5.9,11.8z"/>
<path class="st0" d="M8.7,14.3c-0.4,0-0.8-0.2-1.1-0.6c-0.3-0.6-0.1-1.3,0.5-1.7l11.3-6.4C20,5.2,20.8,5.4,21.1,6
	c0.3,0.6,0.1,1.3-0.5,1.7L9.3,14.1C9.2,14.2,8.9,14.3,8.7,14.3z"/>
<path class="st0" d="M20,24.3c-0.2,0-0.4-0.1-0.6-0.2L8.1,17.7c-0.6-0.3-0.8-1.1-0.5-1.7c0.3-0.6,1.1-0.8,1.7-0.5L20.6,22
	c0.6,0.3,0.8,1.1,0.5,1.7C20.9,24.1,20.5,24.3,20,24.3z"/>
</svg>
