<svg xmlns="http://www.w3.org/2000/svg" xmlns:xlink="http://www.w3.org/1999/xlink" width="100" height="100" viewBox="0 0 100 100"><defs><clipPath id="b"><rect width="100" height="100"/></clipPath></defs><g id="a" clip-path="url(#b)"><path d="M213.676,369.348c-4.543-2.776-7.824-12.367-7.824-23.976V344.11h0c-12.367-2.019-21.452-7.319-21.452-13.629h0a20.309,20.309,0,0,0-4.8,12.871c0,13.629,14.891,24.986,34.072,26ZM173.8,344.362c0-15.4,18.929-27.762,42.4-27.762s42.4,12.367,42.4,27.762-18.929,27.762-42.4,27.762-42.4-12.367-42.4-27.762Zm42.4-23.724c4.543,0,8.329,6.814,9.843,16.4h0c8.833-1.262,14.891-4.543,14.891-8.329,0-5.048-11.1-8.833-24.733-8.833s-24.734,4.038-24.734,8.833c0,3.786,6.057,6.814,14.891,8.329h0c1.514-9.338,5.3-16.4,9.843-16.4Zm2.776,48.71c18.929-1.01,34.072-12.114,34.072-25.743a20.846,20.846,0,0,0-4.8-12.872h0c-.252,6.31-9.086,11.61-21.453,13.629h0v1.262c-.252,11.1-3.533,20.948-7.824,23.724ZM216.2,337.8a42.78,42.78,0,0,0,5.8-.252h0c-1.01-6.057-3.281-10.6-5.8-10.6-2.776,0-5.048,4.29-5.8,10.6h0a42.781,42.781,0,0,0,5.8.252Zm0,22.714c3.533,0,6.31-7.067,6.31-15.9h0a79,79,0,0,1-12.619,0h0c.252,8.833,3.029,15.9,6.31,15.9Z" transform="translate(-165.8 -294.6)" fill="#dc000d"/></g></svg>